<svg width="66" height="66" viewBox="0 0 66 66" fill="none" xmlns="http://www.w3.org/2000/svg">
<path fill-rule="evenodd" clip-rule="evenodd" d="M9 0C4.02944 0 0 4.02943 0 9V57C0 61.9706 4.02943 66 9 66L11.2437 66V40.7897C11.2437 40.702 11.2655 40.6156 11.3072 40.5385L30.6735 4.7288C31.772 2.69758 34.6871 2.69901 35.7836 4.7313L55.1033 40.5387C55.1449 40.6157 55.1667 40.7019 55.1667 40.7894V66L57 66C61.9706 66 66 61.9706 66 57V9C66 4.02944 61.9706 0 57 0H9ZM52.0858 66V41.9391L34.7991 31.7262V64.284V64.416C34.7991 65.2875 35.5121 65.9947 36.3824 66L52.0858 66ZM34.7819 28.314V9.43012L49.9025 37.0392L35.5079 28.5516C35.5079 28.5516 35.2933 28.4338 35.1449 28.3866C35.0071 28.3428 34.7819 28.314 34.7819 28.314ZM44.022 65.076C45.5894 65.076 46.86 63.569 46.86 61.71C46.86 59.851 45.5894 58.344 44.022 58.344C42.4546 58.344 41.184 59.851 41.184 61.71C41.184 63.569 42.4546 65.076 44.022 65.076ZM47.1239 44.6246C47.1239 43.8179 47.7778 43.164 48.5845 43.164C49.3911 43.164 50.0451 43.8179 50.0451 44.6246V54.8638C50.0451 55.6705 49.3911 56.3244 48.5845 56.3244C47.7778 56.3244 47.1239 55.6705 47.1239 54.8638V44.6246ZM43.9579 40.3921C43.1549 40.3921 42.5039 41.043 42.5039 41.846V52.3189C42.5039 53.1219 43.1549 53.7729 43.9579 53.7729C44.7609 53.7729 45.4119 53.1219 45.4119 52.3189V41.846C45.4119 41.043 44.7609 40.3921 43.9579 40.3921ZM37.967 39.5584C37.967 38.743 38.628 38.082 39.4434 38.082C40.2588 38.082 40.9198 38.743 40.9198 39.5584V50.0749C40.9198 50.8903 40.2588 51.5513 39.4434 51.5513C38.628 51.5513 37.967 50.8903 37.967 50.0749V39.5584Z" fill="#CA4238"/>
</svg>
