<svg width="1393" height="131" viewBox="0 0 1393 131" fill="none" xmlns="http://www.w3.org/2000/svg">
<path d="M1187.23 6.08984V23H1193.41C1198.47 23 1201.45 19.8594 1201.45 14.5039C1201.45 9.14844 1198.46 6.08984 1193.41 6.08984H1187.23ZM1190.26 8.64453H1193.09C1196.47 8.64453 1198.37 10.7305 1198.37 14.5156C1198.37 18.3711 1196.49 20.4453 1193.09 20.4453H1190.26V8.64453ZM1211.79 19.2852C1211.47 20.3164 1210.44 20.9961 1209.08 20.9961C1207.17 20.9961 1205.95 19.6602 1205.95 17.668V17.4922H1214.63V16.543C1214.63 12.7695 1212.43 10.3203 1208.9 10.3203C1205.32 10.3203 1203.04 12.9102 1203.04 16.8359C1203.04 20.7969 1205.29 23.2461 1209.02 23.2461C1211.96 23.2461 1214.14 21.6289 1214.52 19.2852H1211.79ZM1208.91 12.582C1210.59 12.582 1211.71 13.8125 1211.77 15.5703H1205.97C1206.09 13.8359 1207.27 12.582 1208.91 12.582ZM1227.46 15.0078C1227.27 12.3945 1225.24 10.3203 1221.96 10.3203C1218.35 10.3203 1216 12.8164 1216 16.7891C1216 20.8203 1218.35 23.2461 1221.98 23.2461C1225.1 23.2461 1227.24 21.418 1227.48 18.6406H1224.72C1224.45 20.0469 1223.49 20.8906 1222.02 20.8906C1220.16 20.8906 1218.97 19.3906 1218.97 16.7891C1218.97 14.2344 1220.15 12.6875 1221.99 12.6875C1223.55 12.6875 1224.48 13.6836 1224.71 15.0078H1227.46ZM1230.75 8.70312C1231.64 8.70312 1232.34 7.98828 1232.34 7.12109C1232.34 6.24219 1231.64 5.53906 1230.75 5.53906C1229.86 5.53906 1229.14 6.24219 1229.14 7.12109C1229.14 7.98828 1229.86 8.70312 1230.75 8.70312ZM1229.29 23H1232.21V10.5781H1229.29V23ZM1234.44 14.1406C1234.44 15.9805 1235.63 17.1523 1238.01 17.6797L1240.07 18.1367C1241.38 18.4297 1241.82 18.8516 1241.82 19.6016C1241.82 20.5273 1240.94 21.1133 1239.52 21.1133C1238.05 21.1133 1237.21 20.5039 1236.99 19.2969H1234.12C1234.36 21.6992 1236.28 23.2461 1239.52 23.2461C1242.57 23.2461 1244.73 21.6641 1244.73 19.3203C1244.73 17.5156 1243.73 16.5195 1241.15 15.9453L1239.09 15.4883C1237.79 15.1953 1237.27 14.7031 1237.27 13.9883C1237.27 13.0742 1238.13 12.4648 1239.42 12.4648C1240.77 12.4648 1241.6 13.1797 1241.71 14.3047H1244.43C1244.36 11.9492 1242.44 10.3203 1239.42 10.3203C1236.42 10.3203 1234.44 11.8672 1234.44 14.1406ZM1248.11 8.70312C1249 8.70312 1249.71 7.98828 1249.71 7.12109C1249.71 6.24219 1249 5.53906 1248.11 5.53906C1247.22 5.53906 1246.51 6.24219 1246.51 7.12109C1246.51 7.98828 1247.22 8.70312 1248.11 8.70312ZM1246.66 23H1249.58V10.5781H1246.66V23ZM1257.52 23.2461C1261.17 23.2461 1263.54 20.8203 1263.54 16.7891C1263.54 12.7695 1261.14 10.3203 1257.52 10.3203C1253.9 10.3203 1251.51 12.7812 1251.51 16.7891C1251.51 20.8203 1253.88 23.2461 1257.52 23.2461ZM1257.52 20.9375C1255.67 20.9375 1254.48 19.4375 1254.48 16.7891C1254.48 14.1523 1255.68 12.6406 1257.52 12.6406C1259.38 12.6406 1260.57 14.1523 1260.57 16.7891C1260.57 19.4375 1259.38 20.9375 1257.52 20.9375ZM1265.41 23H1268.33V15.8047C1268.33 14.0234 1269.39 12.8164 1271.07 12.8164C1272.73 12.8164 1273.55 13.8008 1273.55 15.5586V23H1276.47V14.9727C1276.47 12.1016 1274.91 10.3438 1272.17 10.3438C1270.26 10.3438 1268.94 11.2344 1268.27 12.7109H1268.21V10.5781H1265.41V23ZM1278.59 14.1406C1278.59 15.9805 1279.79 17.1523 1282.17 17.6797L1284.23 18.1367C1285.53 18.4297 1285.98 18.8516 1285.98 19.6016C1285.98 20.5273 1285.1 21.1133 1283.68 21.1133C1282.2 21.1133 1281.37 20.5039 1281.15 19.2969H1278.28C1278.51 21.6992 1280.43 23.2461 1283.68 23.2461C1286.73 23.2461 1288.88 21.6641 1288.88 19.3203C1288.88 17.5156 1287.89 16.5195 1285.31 15.9453L1283.25 15.4883C1281.95 15.1953 1281.43 14.7031 1281.43 13.9883C1281.43 13.0742 1282.29 12.4648 1283.57 12.4648C1284.92 12.4648 1285.75 13.1797 1285.87 14.3047H1288.59C1288.52 11.9492 1286.6 10.3203 1283.57 10.3203C1280.57 10.3203 1278.59 11.8672 1278.59 14.1406ZM1298.87 16.6367H1302.14L1305.46 23H1308.91L1305.22 16.1797C1307.23 15.4531 1308.41 13.5898 1308.41 11.3516C1308.41 8.11719 1306.21 6.08984 1302.56 6.08984H1295.84V23H1298.87V16.6367ZM1298.87 8.53906H1302.22C1304.13 8.53906 1305.31 9.64062 1305.31 11.4219C1305.31 13.25 1304.2 14.3164 1302.28 14.3164H1298.87V8.53906ZM1318.71 19.2852C1318.39 20.3164 1317.36 20.9961 1316 20.9961C1314.09 20.9961 1312.87 19.6602 1312.87 17.668V17.4922H1321.55V16.543C1321.55 12.7695 1319.35 10.3203 1315.82 10.3203C1312.24 10.3203 1309.96 12.9102 1309.96 16.8359C1309.96 20.7969 1312.21 23.2461 1315.94 23.2461C1318.88 23.2461 1321.06 21.6289 1321.44 19.2852H1318.71ZM1315.84 12.582C1317.51 12.582 1318.64 13.8125 1318.7 15.5703H1312.89C1313.01 13.8359 1314.2 12.582 1315.84 12.582ZM1323.52 23H1326.44V6.08984H1323.52V23ZM1337.15 19.2852C1336.84 20.3164 1335.8 20.9961 1334.45 20.9961C1332.54 20.9961 1331.32 19.6602 1331.32 17.668V17.4922H1340V16.543C1340 12.7695 1337.8 10.3203 1334.27 10.3203C1330.68 10.3203 1328.41 12.9102 1328.41 16.8359C1328.41 20.7969 1330.66 23.2461 1334.39 23.2461C1337.33 23.2461 1339.51 21.6289 1339.88 19.2852H1337.15ZM1334.28 12.582C1335.96 12.582 1337.08 13.8125 1337.14 15.5703H1331.34C1331.46 13.8359 1332.64 12.582 1334.28 12.582ZM1345.54 23.1992C1347.14 23.1992 1348.7 22.3672 1349.41 21.0195H1349.47V23H1352.28V14.4453C1352.28 11.9492 1350.28 10.3203 1347.2 10.3203C1344.03 10.3203 1342.05 11.9844 1341.92 14.3047H1344.63C1344.82 13.2734 1345.7 12.6055 1347.08 12.6055C1348.52 12.6055 1349.4 13.3555 1349.4 14.6562V15.5469L1346.12 15.7344C1343.09 15.9219 1341.39 17.2461 1341.39 19.4492C1341.39 21.6875 1343.14 23.1992 1345.54 23.1992ZM1346.42 20.9961C1345.16 20.9961 1344.31 20.3516 1344.31 19.332C1344.31 18.3477 1345.12 17.7148 1346.53 17.6211L1349.4 17.4453V18.3945C1349.4 19.8945 1348.07 20.9961 1346.42 20.9961ZM1354.41 14.1406C1354.41 15.9805 1355.61 17.1523 1357.99 17.6797L1360.05 18.1367C1361.35 18.4297 1361.8 18.8516 1361.8 19.6016C1361.8 20.5273 1360.92 21.1133 1359.5 21.1133C1358.02 21.1133 1357.19 20.5039 1356.97 19.2969H1354.1C1354.33 21.6992 1356.25 23.2461 1359.5 23.2461C1362.55 23.2461 1364.7 21.6641 1364.7 19.3203C1364.7 17.5156 1363.71 16.5195 1361.13 15.9453L1359.07 15.4883C1357.77 15.1953 1357.25 14.7031 1357.25 13.9883C1357.25 13.0742 1358.11 12.4648 1359.39 12.4648C1360.74 12.4648 1361.57 13.1797 1361.69 14.3047H1364.41C1364.34 11.9492 1362.42 10.3203 1359.39 10.3203C1356.39 10.3203 1354.41 11.8672 1354.41 14.1406ZM1374.79 19.2852C1374.48 20.3164 1373.45 20.9961 1372.09 20.9961C1370.18 20.9961 1368.96 19.6602 1368.96 17.668V17.4922H1377.64V16.543C1377.64 12.7695 1375.44 10.3203 1371.91 10.3203C1368.32 10.3203 1366.05 12.9102 1366.05 16.8359C1366.05 20.7969 1368.3 23.2461 1372.03 23.2461C1374.97 23.2461 1377.15 21.6289 1377.52 19.2852H1374.79ZM1371.92 12.582C1373.6 12.582 1374.72 13.8125 1374.78 15.5703H1368.98C1369.1 13.8359 1370.28 12.582 1371.92 12.582ZM1384.17 23.1992C1385.98 23.1992 1387.41 22.2734 1388.09 20.8789H1388.14V23H1391V6.08984H1388.08V12.6641H1388.01C1387.36 11.293 1385.95 10.3672 1384.17 10.3672C1381.04 10.3672 1379.01 12.8516 1379.01 16.7773C1379.01 20.7266 1381.04 23.1992 1384.17 23.1992ZM1385.05 12.7695C1386.89 12.7695 1388.09 14.3516 1388.09 16.7891C1388.09 19.25 1386.89 20.8086 1385.05 20.8086C1383.16 20.8086 1382 19.2617 1382 16.7891C1382 14.3281 1383.17 12.7695 1385.05 12.7695Z" fill="#2F363D"/>
<path d="M1248.53 108V98.8516H1251.66V97.3359H1243.64V98.8516H1246.77V108H1248.53ZM1254.88 97.3359H1253.12V104.422C1253.12 106.656 1254.69 108.211 1257.3 108.211C1259.91 108.211 1261.49 106.656 1261.49 104.422V97.3359H1259.73V104.18C1259.73 105.734 1258.77 106.68 1257.3 106.68C1255.84 106.68 1254.88 105.742 1254.88 104.18V97.3359ZM1270.42 106.508H1265.53V103.297H1270.14V101.867H1265.53V98.8281H1270.42V97.3359H1263.77V108H1270.42V106.508ZM1272.93 110.289L1273.92 106.359H1272.24L1271.64 110.289H1272.93ZM1278.37 105.039C1278.41 106.477 1279.4 108.211 1282.37 108.211C1284.78 108.211 1286.48 107.031 1286.48 104.938C1286.48 103.125 1285.26 102.367 1283.66 101.977L1281.91 101.547C1280.92 101.32 1280.44 100.82 1280.44 100.125C1280.44 99.1328 1281.27 98.5547 1282.48 98.5547C1283.87 98.5547 1284.56 99.3047 1284.64 100.211H1286.34C1286.3 98.2188 1284.58 97.1016 1282.51 97.1016C1280.44 97.1016 1278.66 98.2188 1278.66 100.258C1278.66 101.992 1279.89 102.812 1281.27 103.133L1283.02 103.57C1284.16 103.844 1284.7 104.281 1284.7 105.094C1284.7 106.102 1283.88 106.75 1282.5 106.75C1280.99 106.75 1280.18 105.961 1280.1 105.039H1278.37ZM1295 106.508H1290.11V103.297H1294.72V101.867H1290.11V98.8281H1295V97.3359H1288.34V108H1295V106.508ZM1297.05 97.3359V108H1298.82V104.219H1301.13C1303.3 104.219 1304.65 102.797 1304.65 100.781C1304.65 98.7891 1303.32 97.3359 1301.14 97.3359H1297.05ZM1298.82 98.8047H1300.88C1302.11 98.8047 1302.84 99.5234 1302.84 100.781C1302.84 102.367 1301.88 102.766 1300.24 102.766H1298.82V98.8047ZM1310.23 108V98.8516H1313.37V97.3359H1305.34V98.8516H1308.48V108H1310.23ZM1319.19 100.414V100.32C1319.19 99.3906 1319.87 98.5781 1320.98 98.5781C1321.98 98.5781 1322.73 99.2188 1322.73 100.227C1322.73 101.109 1322.17 101.789 1321.52 102.5L1317.59 106.891V108H1324.7V106.523H1320.03V106.477L1322.66 103.469C1323.79 102.203 1324.5 101.336 1324.5 100.078C1324.5 98.3672 1323.12 97.125 1321.05 97.125C1318.82 97.125 1317.49 98.6016 1317.49 100.328V100.414H1319.19ZM1326.27 105.328C1326.35 106.633 1327.48 108.195 1329.79 108.195C1332.4 108.195 1333.91 106.055 1333.91 102.5C1333.91 98.7344 1332.33 97.1328 1329.87 97.1328C1327.92 97.1328 1326.16 98.4688 1326.16 100.789C1326.16 103.086 1327.76 104.297 1329.48 104.297C1330.97 104.297 1331.86 103.539 1332.14 102.742H1332.22C1332.24 105.055 1331.46 106.758 1329.84 106.758C1328.7 106.758 1328.06 106.008 1327.97 105.328H1326.27ZM1332.01 100.781C1332.01 102.031 1331.04 102.906 1329.91 102.906C1328.8 102.906 1327.86 102.188 1327.86 100.75C1327.86 99.2969 1328.87 98.5703 1329.94 98.5703C1331.09 98.5703 1332.01 99.3125 1332.01 100.781ZM1277.95 119.219H1279.57C1279.58 118.258 1280.13 117.516 1281.25 117.516C1282.09 117.516 1282.87 117.938 1282.87 118.953C1282.87 119.734 1282.41 120.094 1281.67 120.641C1280.85 121.242 1280.19 121.945 1280.23 123.086L1280.24 123.656H1281.86V123.219C1281.86 122.336 1282.2 122.078 1283.1 121.391C1283.84 120.82 1284.63 120.188 1284.63 118.859C1284.63 117 1283.05 116.102 1281.34 116.102C1279.71 116.102 1277.91 116.898 1277.95 119.219ZM1280.03 126.148C1280.03 126.727 1280.5 127.156 1281.09 127.156C1281.66 127.156 1282.13 126.727 1282.13 126.148C1282.13 125.57 1281.66 125.148 1281.09 125.148C1280.5 125.148 1280.03 125.57 1280.03 126.148ZM1285.66 119.219H1287.27C1287.28 118.258 1287.84 117.516 1288.95 117.516C1289.79 117.516 1290.57 117.938 1290.57 118.953C1290.57 119.734 1290.11 120.094 1289.38 120.641C1288.55 121.242 1287.89 121.945 1287.94 123.086L1287.95 123.656H1289.56V123.219C1289.56 122.336 1289.9 122.078 1290.8 121.391C1291.55 120.82 1292.34 120.188 1292.34 118.859C1292.34 117 1290.76 116.102 1289.04 116.102C1287.41 116.102 1285.62 116.898 1285.66 119.219ZM1287.73 126.148C1287.73 126.727 1288.2 127.156 1288.79 127.156C1289.37 127.156 1289.84 126.727 1289.84 126.148C1289.84 125.57 1289.37 125.148 1288.79 125.148C1288.2 125.148 1287.73 125.57 1287.73 126.148ZM1293.36 119.219H1294.98C1294.98 118.258 1295.54 117.516 1296.66 117.516C1297.49 117.516 1298.27 117.938 1298.27 118.953C1298.27 119.734 1297.81 120.094 1297.08 120.641C1296.26 121.242 1295.59 121.945 1295.64 123.086L1295.65 123.656H1297.27V123.219C1297.27 122.336 1297.6 122.078 1298.51 121.391C1299.25 120.82 1300.04 120.188 1300.04 118.859C1300.04 117 1298.46 116.102 1296.74 116.102C1295.12 116.102 1293.32 116.898 1293.36 119.219ZM1295.44 126.148C1295.44 126.727 1295.91 127.156 1296.49 127.156C1297.07 127.156 1297.54 126.727 1297.54 126.148C1297.54 125.57 1297.07 125.148 1296.49 125.148C1295.91 125.148 1295.44 125.57 1295.44 126.148Z" fill="#586069"/>
<path d="M894.305 105.039C894.344 106.477 895.336 108.211 898.305 108.211C900.719 108.211 902.414 107.031 902.414 104.938C902.414 103.125 901.195 102.367 899.594 101.977L897.852 101.547C896.859 101.32 896.375 100.82 896.375 100.125C896.375 99.1328 897.203 98.5547 898.422 98.5547C899.805 98.5547 900.5 99.3047 900.578 100.211H902.281C902.242 98.2188 900.516 97.1016 898.445 97.1016C896.375 97.1016 894.594 98.2188 894.594 100.258C894.594 101.992 895.828 102.812 897.203 103.133L898.953 103.57C900.094 103.844 900.641 104.281 900.641 105.094C900.641 106.102 899.82 106.75 898.438 106.75C896.93 106.75 896.117 105.961 896.039 105.039H894.305ZM905.047 108L906 105.047H909.742L910.688 108H912.562L908.898 97.3359H906.914L903.242 108H905.047ZM907.914 99.1797L909.344 103.688H906.398L907.844 99.1797H907.914ZM917.031 108V98.8516H920.164V97.3359H912.141V98.8516H915.273V108H917.031ZM920.602 110.289L921.594 106.359H919.914L919.312 110.289H920.602ZM926.039 105.039C926.078 106.477 927.07 108.211 930.039 108.211C932.453 108.211 934.148 107.031 934.148 104.938C934.148 103.125 932.93 102.367 931.328 101.977L929.586 101.547C928.594 101.32 928.109 100.82 928.109 100.125C928.109 99.1328 928.938 98.5547 930.156 98.5547C931.539 98.5547 932.234 99.3047 932.312 100.211H934.016C933.977 98.2188 932.25 97.1016 930.18 97.1016C928.109 97.1016 926.328 98.2188 926.328 100.258C926.328 101.992 927.562 102.812 928.938 103.133L930.688 103.57C931.828 103.844 932.375 104.281 932.375 105.094C932.375 106.102 931.555 106.75 930.172 106.75C928.664 106.75 927.852 105.961 927.773 105.039H926.039ZM942.672 106.508H937.781V103.297H942.391V101.867H937.781V98.8281H942.672V97.3359H936.016V108H942.672V106.508ZM944.719 97.3359V108H946.492V104.219H948.805C950.977 104.219 952.32 102.797 952.32 100.781C952.32 98.7891 950.992 97.3359 948.812 97.3359H944.719ZM946.492 98.8047H948.547C949.781 98.8047 950.516 99.5234 950.516 100.781C950.516 102.367 949.547 102.766 947.914 102.766H946.492V98.8047ZM957.906 108V98.8516H961.039V97.3359H953.016V98.8516H956.148V108H957.906ZM966.859 100.414V100.32C966.859 99.3906 967.539 98.5781 968.648 98.5781C969.656 98.5781 970.398 99.2188 970.398 100.227C970.398 101.109 969.844 101.789 969.195 102.5L965.266 106.891V108H972.367V106.523H967.703V106.477L970.328 103.469C971.461 102.203 972.172 101.336 972.172 100.078C972.172 98.3672 970.797 97.125 968.719 97.125C966.492 97.125 965.164 98.6016 965.164 100.328V100.414H966.859ZM981.305 99.9062C981.203 98.6094 980.039 97.1406 977.922 97.1406C975.484 97.1406 973.805 99.1094 973.805 102.984C973.805 104.727 974.195 106.039 974.898 106.906C975.594 107.773 976.594 108.211 977.797 108.211C979.891 108.211 981.57 106.859 981.57 104.516C981.57 102.266 979.875 101.031 978.133 101.031C976.742 101.031 975.852 101.844 975.547 102.586H975.492C975.531 99.9531 976.5 98.5781 977.867 98.5781C978.953 98.5781 979.539 99.3281 979.602 99.9062H981.305ZM975.719 104.609C975.719 103.219 976.672 102.43 977.797 102.43C978.852 102.43 979.859 103.156 979.859 104.602C979.859 106.055 978.883 106.766 977.812 106.766C976.695 106.766 975.719 106.008 975.719 104.609ZM926.953 119.219H928.57C928.578 118.258 929.133 117.516 930.25 117.516C931.086 117.516 931.867 117.938 931.867 118.953C931.867 119.734 931.406 120.094 930.672 120.641C929.852 121.242 929.188 121.945 929.234 123.086L929.242 123.656H930.859V123.219C930.859 122.336 931.195 122.078 932.102 121.391C932.844 120.82 933.633 120.188 933.633 118.859C933.633 117 932.055 116.102 930.336 116.102C928.711 116.102 926.914 116.898 926.953 119.219ZM929.031 126.148C929.031 126.727 929.5 127.156 930.086 127.156C930.664 127.156 931.133 126.727 931.133 126.148C931.133 125.57 930.664 125.148 930.086 125.148C929.5 125.148 929.031 125.57 929.031 126.148ZM934.656 119.219H936.273C936.281 118.258 936.836 117.516 937.953 117.516C938.789 117.516 939.57 117.938 939.57 118.953C939.57 119.734 939.109 120.094 938.375 120.641C937.555 121.242 936.891 121.945 936.938 123.086L936.945 123.656H938.562V123.219C938.562 122.336 938.898 122.078 939.805 121.391C940.547 120.82 941.336 120.188 941.336 118.859C941.336 117 939.758 116.102 938.039 116.102C936.414 116.102 934.617 116.898 934.656 119.219ZM936.734 126.148C936.734 126.727 937.203 127.156 937.789 127.156C938.367 127.156 938.836 126.727 938.836 126.148C938.836 125.57 938.367 125.148 937.789 125.148C937.203 125.148 936.734 125.57 936.734 126.148ZM942.359 119.219H943.977C943.984 118.258 944.539 117.516 945.656 117.516C946.492 117.516 947.273 117.938 947.273 118.953C947.273 119.734 946.812 120.094 946.078 120.641C945.258 121.242 944.594 121.945 944.641 123.086L944.648 123.656H946.266V123.219C946.266 122.336 946.602 122.078 947.508 121.391C948.25 120.82 949.039 120.188 949.039 118.859C949.039 117 947.461 116.102 945.742 116.102C944.117 116.102 942.32 116.898 942.359 119.219ZM944.438 126.148C944.438 126.727 944.906 127.156 945.492 127.156C946.07 127.156 946.539 126.727 946.539 126.148C946.539 125.57 946.07 125.148 945.492 125.148C944.906 125.148 944.438 125.57 944.438 126.148Z" fill="#586069"/>
<path d="M870.512 23V6.08984H867.488V23H870.512ZM873.195 23H876.113V15.8047C876.113 14.0234 877.18 12.8164 878.855 12.8164C880.52 12.8164 881.34 13.8008 881.34 15.5586V23H884.258V14.9727C884.258 12.1016 882.699 10.3438 879.957 10.3438C878.047 10.3438 876.723 11.2344 876.055 12.7109H875.996V10.5781H873.195V23ZM887.41 7.67188V10.5781H885.629V12.8281H887.41V19.6953C887.41 22.1094 888.465 23.0586 891.148 23.0586C891.77 23.0586 892.344 23.0117 892.66 22.9414V20.7148C892.473 20.75 892.098 20.7734 891.828 20.7734C890.797 20.7734 890.328 20.3047 890.328 19.2852V12.8281H892.672V10.5781H890.328V7.67188H887.41ZM902.656 19.2852C902.34 20.3164 901.309 20.9961 899.949 20.9961C898.039 20.9961 896.82 19.6602 896.82 17.668V17.4922H905.504V16.543C905.504 12.7695 903.301 10.3203 899.773 10.3203C896.188 10.3203 893.914 12.9102 893.914 16.8359C893.914 20.7969 896.164 23.2461 899.891 23.2461C902.832 23.2461 905.012 21.6289 905.387 19.2852H902.656ZM899.785 12.582C901.461 12.582 902.586 13.8125 902.645 15.5703H896.844C896.961 13.8359 898.145 12.582 899.785 12.582ZM907.391 23H910.309V15.7695C910.309 14.0234 911.305 12.957 912.957 12.957C913.449 12.957 913.895 13.0273 914.141 13.1211V10.4844C913.93 10.4375 913.602 10.3672 913.227 10.3672C911.762 10.3672 910.672 11.2344 910.25 12.7461H910.191V10.5781H907.391V23ZM926.574 10.5781H923.527L920.645 20.293H920.586L917.703 10.5781H914.586L918.992 23H922.203L926.574 10.5781ZM929.445 8.70312C930.336 8.70312 931.039 7.98828 931.039 7.12109C931.039 6.24219 930.336 5.53906 929.445 5.53906C928.555 5.53906 927.84 6.24219 927.84 7.12109C927.84 7.98828 928.555 8.70312 929.445 8.70312ZM927.992 23H930.91V10.5781H927.992V23ZM941.586 19.2852C941.27 20.3164 940.238 20.9961 938.879 20.9961C936.969 20.9961 935.75 19.6602 935.75 17.668V17.4922H944.434V16.543C944.434 12.7695 942.23 10.3203 938.703 10.3203C935.117 10.3203 932.844 12.9102 932.844 16.8359C932.844 20.7969 935.094 23.2461 938.82 23.2461C941.762 23.2461 943.941 21.6289 944.316 19.2852H941.586ZM938.715 12.582C940.391 12.582 941.516 13.8125 941.574 15.5703H935.773C935.891 13.8359 937.074 12.582 938.715 12.582ZM963.125 10.5781H960.242L958.145 20.1172H958.074L955.648 10.5781H952.848L950.422 20.1172H950.363L948.266 10.5781H945.336L948.699 23H951.746L954.184 13.918H954.242L956.691 23H959.762L963.125 10.5781ZM969.676 6.08984V23H975.852C980.914 23 983.891 19.8594 983.891 14.5039C983.891 9.14844 980.902 6.08984 975.852 6.08984H969.676ZM972.699 8.64453H975.535C978.91 8.64453 980.809 10.7305 980.809 14.5156C980.809 18.3711 978.934 20.4453 975.535 20.4453H972.699V8.64453ZM989.609 23.1992C991.203 23.1992 992.762 22.3672 993.477 21.0195H993.535V23H996.348V14.4453C996.348 11.9492 994.344 10.3203 991.262 10.3203C988.098 10.3203 986.117 11.9844 985.988 14.3047H988.695C988.883 13.2734 989.762 12.6055 991.145 12.6055C992.586 12.6055 993.465 13.3555 993.465 14.6562V15.5469L990.184 15.7344C987.16 15.9219 985.461 17.2461 985.461 19.4492C985.461 21.6875 987.207 23.1992 989.609 23.1992ZM990.488 20.9961C989.223 20.9961 988.379 20.3516 988.379 19.332C988.379 18.3477 989.188 17.7148 990.594 17.6211L993.465 17.4453V18.3945C993.465 19.8945 992.141 20.9961 990.488 20.9961ZM1000.05 27.6172C1002.89 27.6172 1004.26 26.5742 1005.31 23.4922L1009.81 10.5781H1006.74L1003.81 20.5156H1003.75L1000.84 10.5781H997.648L1002.07 23.0117C1002.08 23.0469 1001.89 23.668 1001.89 23.7031C1001.57 24.8516 1000.95 25.3086 999.746 25.3086C999.57 25.3086 999.055 25.2969 998.902 25.2617V27.5703C999.055 27.6055 999.875 27.6172 1000.05 27.6172Z" fill="#2F363D"/>
<path d="M491.383 108V100.633H491.445L494.211 106.867H495.484L498.242 100.633H498.312V108H499.914V97.3359H498.141L494.883 104.836H494.828L491.57 97.3359H489.789V108H491.383ZM501.914 103.445C501.914 106.461 503.609 108.211 506.344 108.211C509.07 108.211 510.789 106.461 510.789 103.445V101.984C510.789 98.9609 509.094 97.125 506.359 97.125C503.641 97.125 501.914 98.9531 501.914 101.984V103.445ZM503.703 101.969C503.703 99.7656 504.836 98.6406 506.352 98.6406C507.867 98.6406 508.992 99.7656 508.992 101.969V103.445C508.992 105.656 507.867 106.703 506.352 106.703C504.836 106.703 503.703 105.656 503.703 103.445V101.969ZM514.43 108V100.32H514.477L519.531 108H521.078V97.3359H519.414V104.992H519.359L514.32 97.3359H512.758V108H514.43ZM523.938 110.289L524.93 106.359H523.25L522.648 110.289H523.938ZM529.375 105.039C529.414 106.477 530.406 108.211 533.375 108.211C535.789 108.211 537.484 107.031 537.484 104.938C537.484 103.125 536.266 102.367 534.664 101.977L532.922 101.547C531.93 101.32 531.445 100.82 531.445 100.125C531.445 99.1328 532.273 98.5547 533.492 98.5547C534.875 98.5547 535.57 99.3047 535.648 100.211H537.352C537.312 98.2188 535.586 97.1016 533.516 97.1016C531.445 97.1016 529.664 98.2188 529.664 100.258C529.664 101.992 530.898 102.812 532.273 103.133L534.023 103.57C535.164 103.844 535.711 104.281 535.711 105.094C535.711 106.102 534.891 106.75 533.508 106.75C532 106.75 531.188 105.961 531.109 105.039H529.375ZM546.008 106.508H541.117V103.297H545.727V101.867H541.117V98.8281H546.008V97.3359H539.352V108H546.008V106.508ZM548.055 97.3359V108H549.828V104.219H552.141C554.312 104.219 555.656 102.797 555.656 100.781C555.656 98.7891 554.328 97.3359 552.148 97.3359H548.055ZM549.828 98.8047H551.883C553.117 98.8047 553.852 99.5234 553.852 100.781C553.852 102.367 552.883 102.766 551.25 102.766H549.828V98.8047ZM561.242 108V98.8516H564.375V97.3359H556.352V98.8516H559.484V108H561.242ZM570.195 100.414V100.32C570.195 99.3906 570.875 98.5781 571.984 98.5781C572.992 98.5781 573.734 99.2188 573.734 100.227C573.734 101.109 573.18 101.789 572.531 102.5L568.602 106.891V108H575.703V106.523H571.039V106.477L573.664 103.469C574.797 102.203 575.508 101.336 575.508 100.078C575.508 98.3672 574.133 97.125 572.055 97.125C569.828 97.125 568.5 98.6016 568.5 100.328V100.414H570.195ZM578.992 100.414V100.32C578.992 99.3906 579.672 98.5781 580.781 98.5781C581.789 98.5781 582.531 99.2188 582.531 100.227C582.531 101.109 581.977 101.789 581.328 102.5L577.398 106.891V108H584.5V106.523H579.836V106.477L582.461 103.469C583.594 102.203 584.305 101.336 584.305 100.078C584.305 98.3672 582.93 97.125 580.852 97.125C578.625 97.125 577.297 98.6016 577.297 100.328V100.414H578.992ZM593.992 104.398V102.852H589.07V104.398H593.992ZM600.75 108V103.594H605.141V102.109H600.75V98.8438H605.555V97.3359H598.977V108H600.75ZM611.273 97.3359H607.195V108H608.953V103.898H611.164L613.078 108H615.07L612.914 103.602C613.781 103.281 614.867 102.375 614.867 100.617C614.867 98.8359 613.734 97.3359 611.273 97.3359ZM608.953 102.492V98.7891H611.031C612.227 98.7891 613.047 99.4219 613.047 100.68C613.047 101.852 612.305 102.492 610.984 102.492H608.953ZM618.656 108V97.3359H616.883V108H618.656ZM621.516 110.289L622.508 106.359H620.828L620.227 110.289H621.516ZM626.953 105.039C626.992 106.477 627.984 108.211 630.953 108.211C633.367 108.211 635.062 107.031 635.062 104.938C635.062 103.125 633.844 102.367 632.242 101.977L630.5 101.547C629.508 101.32 629.023 100.82 629.023 100.125C629.023 99.1328 629.852 98.5547 631.07 98.5547C632.453 98.5547 633.148 99.3047 633.227 100.211H634.93C634.891 98.2188 633.164 97.1016 631.094 97.1016C629.023 97.1016 627.242 98.2188 627.242 100.258C627.242 101.992 628.477 102.812 629.852 103.133L631.602 103.57C632.742 103.844 633.289 104.281 633.289 105.094C633.289 106.102 632.469 106.75 631.086 106.75C629.578 106.75 628.766 105.961 628.688 105.039H626.953ZM643.586 106.508H638.695V103.297H643.305V101.867H638.695V98.8281H643.586V97.3359H636.93V108H643.586V106.508ZM645.633 97.3359V108H647.406V104.219H649.719C651.891 104.219 653.234 102.797 653.234 100.781C653.234 98.7891 651.906 97.3359 649.727 97.3359H645.633ZM647.406 98.8047H649.461C650.695 98.8047 651.43 99.5234 651.43 100.781C651.43 102.367 650.461 102.766 648.828 102.766H647.406V98.8047ZM658.82 108V98.8516H661.953V97.3359H653.93V98.8516H657.062V108H658.82ZM667.773 100.414V100.32C667.773 99.3906 668.453 98.5781 669.562 98.5781C670.57 98.5781 671.312 99.2188 671.312 100.227C671.312 101.109 670.758 101.789 670.109 102.5L666.18 106.891V108H673.281V106.523H668.617V106.477L671.242 103.469C672.375 102.203 673.086 101.336 673.086 100.078C673.086 98.3672 671.711 97.125 669.633 97.125C667.406 97.125 666.078 98.6016 666.078 100.328V100.414H667.773ZM675.031 105.219C675.117 106.828 676.391 108.211 678.711 108.211C680.992 108.211 682.703 106.719 682.703 104.453C682.703 102.297 681.07 100.906 679.18 100.906C677.984 100.906 677.148 101.453 676.891 101.82H676.836L677.148 98.7969H681.906V97.3281H675.703L675.164 103.562H676.695C676.969 102.969 677.617 102.305 678.805 102.305C679.992 102.305 680.945 103.164 680.945 104.523C680.945 105.969 679.812 106.766 678.789 106.766C677.656 106.766 676.836 106.203 676.688 105.219H675.031ZM574.953 119.219H576.57C576.578 118.258 577.133 117.516 578.25 117.516C579.086 117.516 579.867 117.938 579.867 118.953C579.867 119.734 579.406 120.094 578.672 120.641C577.852 121.242 577.188 121.945 577.234 123.086L577.242 123.656H578.859V123.219C578.859 122.336 579.195 122.078 580.102 121.391C580.844 120.82 581.633 120.188 581.633 118.859C581.633 117 580.055 116.102 578.336 116.102C576.711 116.102 574.914 116.898 574.953 119.219ZM577.031 126.148C577.031 126.727 577.5 127.156 578.086 127.156C578.664 127.156 579.133 126.727 579.133 126.148C579.133 125.57 578.664 125.148 578.086 125.148C577.5 125.148 577.031 125.57 577.031 126.148ZM582.656 119.219H584.273C584.281 118.258 584.836 117.516 585.953 117.516C586.789 117.516 587.57 117.938 587.57 118.953C587.57 119.734 587.109 120.094 586.375 120.641C585.555 121.242 584.891 121.945 584.938 123.086L584.945 123.656H586.562V123.219C586.562 122.336 586.898 122.078 587.805 121.391C588.547 120.82 589.336 120.188 589.336 118.859C589.336 117 587.758 116.102 586.039 116.102C584.414 116.102 582.617 116.898 582.656 119.219ZM584.734 126.148C584.734 126.727 585.203 127.156 585.789 127.156C586.367 127.156 586.836 126.727 586.836 126.148C586.836 125.57 586.367 125.148 585.789 125.148C585.203 125.148 584.734 125.57 584.734 126.148ZM590.359 119.219H591.977C591.984 118.258 592.539 117.516 593.656 117.516C594.492 117.516 595.273 117.938 595.273 118.953C595.273 119.734 594.812 120.094 594.078 120.641C593.258 121.242 592.594 121.945 592.641 123.086L592.648 123.656H594.266V123.219C594.266 122.336 594.602 122.078 595.508 121.391C596.25 120.82 597.039 120.188 597.039 118.859C597.039 117 595.461 116.102 593.742 116.102C592.117 116.102 590.32 116.898 590.359 119.219ZM592.438 126.148C592.438 126.727 592.906 127.156 593.492 127.156C594.07 127.156 594.539 126.727 594.539 126.148C594.539 125.57 594.07 125.148 593.492 125.148C592.906 125.148 592.438 125.57 592.438 126.148Z" fill="#586069"/>
<path d="M524.793 23.2812C528.789 23.2812 531.555 21.0898 532.082 17.4688H529.117C528.648 19.5078 527.043 20.7148 524.805 20.7148C521.875 20.7148 520.023 18.3359 520.023 14.5391C520.023 10.7656 521.887 8.375 524.793 8.375C526.984 8.375 528.707 9.76953 529.105 11.8906H532.082C531.707 8.25781 528.719 5.80859 524.793 5.80859C519.988 5.80859 516.93 9.14844 516.93 14.5391C516.93 19.9648 519.965 23.2812 524.793 23.2812ZM539.582 23.2461C543.227 23.2461 545.594 20.8203 545.594 16.7891C545.594 12.7695 543.203 10.3203 539.582 10.3203C535.961 10.3203 533.57 12.7812 533.57 16.7891C533.57 20.8203 535.938 23.2461 539.582 23.2461ZM539.582 20.9375C537.73 20.9375 536.535 19.4375 536.535 16.7891C536.535 14.1523 537.742 12.6406 539.582 12.6406C541.434 12.6406 542.629 14.1523 542.629 16.7891C542.629 19.4375 541.434 20.9375 539.582 20.9375ZM548.277 23H551.195V12.8281H553.633V10.6133H551.148V9.59375C551.148 8.58594 551.652 8.05859 552.766 8.05859C553.105 8.05859 553.445 8.09375 553.691 8.12891V6.08984C553.328 6.01953 552.695 5.96094 552.121 5.96094C549.426 5.96094 548.277 7.09766 548.277 9.51172V10.6133H546.578V12.8281H548.277V23ZM556.363 23H559.281V12.8281H561.719V10.6133H559.234V9.59375C559.234 8.58594 559.738 8.05859 560.852 8.05859C561.191 8.05859 561.531 8.09375 561.777 8.12891V6.08984C561.414 6.01953 560.781 5.96094 560.207 5.96094C557.512 5.96094 556.363 7.09766 556.363 9.51172V10.6133H554.664V12.8281H556.363V23ZM571.422 19.2852C571.105 20.3164 570.074 20.9961 568.715 20.9961C566.805 20.9961 565.586 19.6602 565.586 17.668V17.4922H574.27V16.543C574.27 12.7695 572.066 10.3203 568.539 10.3203C564.953 10.3203 562.68 12.9102 562.68 16.8359C562.68 20.7969 564.93 23.2461 568.656 23.2461C571.598 23.2461 573.777 21.6289 574.152 19.2852H571.422ZM568.551 12.582C570.227 12.582 571.352 13.8125 571.41 15.5703H565.609C565.727 13.8359 566.91 12.582 568.551 12.582ZM584.383 19.2852C584.066 20.3164 583.035 20.9961 581.676 20.9961C579.766 20.9961 578.547 19.6602 578.547 17.668V17.4922H587.23V16.543C587.23 12.7695 585.027 10.3203 581.5 10.3203C577.914 10.3203 575.641 12.9102 575.641 16.8359C575.641 20.7969 577.891 23.2461 581.617 23.2461C584.559 23.2461 586.738 21.6289 587.113 19.2852H584.383ZM581.512 12.582C583.188 12.582 584.312 13.8125 584.371 15.5703H578.57C578.688 13.8359 579.871 12.582 581.512 12.582ZM601.504 23.2812C605.5 23.2812 608.266 21.0898 608.793 17.4688H605.828C605.359 19.5078 603.754 20.7148 601.516 20.7148C598.586 20.7148 596.734 18.3359 596.734 14.5391C596.734 10.7656 598.598 8.375 601.504 8.375C603.695 8.375 605.418 9.76953 605.816 11.8906H608.793C608.418 8.25781 605.43 5.80859 601.504 5.80859C596.699 5.80859 593.641 9.14844 593.641 14.5391C593.641 19.9648 596.676 23.2812 601.504 23.2812ZM610.879 23H613.797V15.8633C613.797 14.0352 614.863 12.8164 616.621 12.8164C618.309 12.8164 619.176 13.8594 619.176 15.5938V23H622.094V14.9961C622.094 12.1484 620.488 10.3438 617.746 10.3438C615.859 10.3438 614.488 11.1992 613.82 12.7109H613.762V6.08984H610.879V23ZM628.094 23.1992C629.688 23.1992 631.246 22.3672 631.961 21.0195H632.02V23H634.832V14.4453C634.832 11.9492 632.828 10.3203 629.746 10.3203C626.582 10.3203 624.602 11.9844 624.473 14.3047H627.18C627.367 13.2734 628.246 12.6055 629.629 12.6055C631.07 12.6055 631.949 13.3555 631.949 14.6562V15.5469L628.668 15.7344C625.645 15.9219 623.945 17.2461 623.945 19.4492C623.945 21.6875 625.691 23.1992 628.094 23.1992ZM628.973 20.9961C627.707 20.9961 626.863 20.3516 626.863 19.332C626.863 18.3477 627.672 17.7148 629.078 17.6211L631.949 17.4453V18.3945C631.949 19.8945 630.625 20.9961 628.973 20.9961ZM637.996 7.67188V10.5781H636.215V12.8281H637.996V19.6953C637.996 22.1094 639.051 23.0586 641.734 23.0586C642.355 23.0586 642.93 23.0117 643.246 22.9414V20.7148C643.059 20.75 642.684 20.7734 642.414 20.7734C641.383 20.7734 640.914 20.3047 640.914 19.2852V12.8281H643.258V10.5781H640.914V7.67188H637.996ZM645.027 14.1406C645.027 15.9805 646.223 17.1523 648.602 17.6797L650.664 18.1367C651.965 18.4297 652.41 18.8516 652.41 19.6016C652.41 20.5273 651.531 21.1133 650.113 21.1133C648.637 21.1133 647.805 20.5039 647.582 19.2969H644.711C644.945 21.6992 646.867 23.2461 650.113 23.2461C653.16 23.2461 655.316 21.6641 655.316 19.3203C655.316 17.5156 654.32 16.5195 651.742 15.9453L649.68 15.4883C648.379 15.1953 647.863 14.7031 647.863 13.9883C647.863 13.0742 648.719 12.4648 650.008 12.4648C651.355 12.4648 652.188 13.1797 652.305 14.3047H655.023C654.953 11.9492 653.031 10.3203 650.008 10.3203C647.008 10.3203 645.027 11.8672 645.027 14.1406Z" fill="#2F363D"/>
<path d="M182.703 108V103.594H187.094V102.109H182.703V98.8438H187.508V97.3359H180.93V108H182.703ZM193.227 97.3359H189.148V108H190.906V103.898H193.117L195.031 108H197.023L194.867 103.602C195.734 103.281 196.82 102.375 196.82 100.617C196.82 98.8359 195.688 97.3359 193.227 97.3359ZM190.906 102.492V98.7891H192.984C194.18 98.7891 195 99.4219 195 100.68C195 101.852 194.258 102.492 192.938 102.492H190.906ZM200.609 108V97.3359H198.836V108H200.609ZM203.008 97.3359V108H206.688C209.852 108 211.422 106.086 211.422 102.648C211.422 99.2188 209.867 97.3359 206.688 97.3359H203.008ZM204.781 98.8281H206.5C208.68 98.8281 209.594 100.234 209.594 102.672C209.594 105.414 208.477 106.508 206.5 106.508H204.781V98.8281ZM213.836 108L214.789 105.047H218.531L219.477 108H221.352L217.688 97.3359H215.703L212.031 108H213.836ZM216.703 99.1797L218.133 103.688H215.188L216.633 99.1797H216.703ZM225.969 108V103.672L229.539 97.3359H227.594L225.133 101.953H225.07L222.617 97.3359H220.641L224.211 103.703V108H225.969ZM229.719 110.289L230.711 106.359H229.031L228.43 110.289H229.719ZM235.156 105.039C235.195 106.477 236.188 108.211 239.156 108.211C241.57 108.211 243.266 107.031 243.266 104.938C243.266 103.125 242.047 102.367 240.445 101.977L238.703 101.547C237.711 101.32 237.227 100.82 237.227 100.125C237.227 99.1328 238.055 98.5547 239.273 98.5547C240.656 98.5547 241.352 99.3047 241.43 100.211H243.133C243.094 98.2188 241.367 97.1016 239.297 97.1016C237.227 97.1016 235.445 98.2188 235.445 100.258C235.445 101.992 236.68 102.812 238.055 103.133L239.805 103.57C240.945 103.844 241.492 104.281 241.492 105.094C241.492 106.102 240.672 106.75 239.289 106.75C237.781 106.75 236.969 105.961 236.891 105.039H235.156ZM251.789 106.508H246.898V103.297H251.508V101.867H246.898V98.8281H251.789V97.3359H245.133V108H251.789V106.508ZM253.836 97.3359V108H255.609V104.219H257.922C260.094 104.219 261.438 102.797 261.438 100.781C261.438 98.7891 260.109 97.3359 257.93 97.3359H253.836ZM255.609 98.8047H257.664C258.898 98.8047 259.633 99.5234 259.633 100.781C259.633 102.367 258.664 102.766 257.031 102.766H255.609V98.8047ZM267.023 108V98.8516H270.156V97.3359H262.133V98.8516H265.266V108H267.023ZM278.523 108V97.3359H276.836C276.227 97.6562 274.836 98.5391 274.242 98.9609V100.656C274.789 100.273 276.305 99.3125 276.719 99.0859H276.773V108H278.523ZM284.562 108.211C286.922 108.211 288.547 106.93 288.547 105.07C288.547 103.406 287.289 102.602 286.352 102.398V102.352C287.148 102.102 288.133 101.367 288.133 99.9531C288.133 98.3203 286.688 97.125 284.594 97.125C282.5 97.125 281.047 98.3203 281.047 99.9531C281.047 101.344 281.992 102.094 282.82 102.352V102.398C281.891 102.602 280.625 103.391 280.625 105.086C280.625 106.938 282.211 108.211 284.562 108.211ZM284.594 101.797C283.531 101.797 282.75 101.109 282.75 100.125C282.75 99.1484 283.531 98.4844 284.594 98.4844C285.656 98.4844 286.43 99.1484 286.43 100.125C286.43 101.109 285.656 101.797 284.594 101.797ZM284.594 106.867C283.336 106.867 282.375 106.102 282.375 104.984C282.375 103.859 283.336 103.086 284.594 103.086C285.852 103.086 286.805 103.859 286.805 104.984C286.805 106.102 285.852 106.867 284.594 106.867ZM199.625 127V116.336H197.938C197.328 116.656 195.938 117.539 195.344 117.961V119.656C195.891 119.273 197.406 118.312 197.82 118.086H197.875V127H199.625ZM206.062 127V116.336H204.375C203.766 116.656 202.375 117.539 201.781 117.961V119.656C202.328 119.273 203.844 118.312 204.258 118.086H204.312V127H206.062ZM207.828 119.055C207.828 119.641 208.312 120.125 208.906 120.125C209.492 120.125 209.977 119.641 209.977 119.055C209.977 118.469 209.492 117.984 208.906 117.984C208.312 117.984 207.828 118.469 207.828 119.055ZM207.828 124.539C207.828 125.125 208.312 125.609 208.906 125.609C209.492 125.609 209.977 125.125 209.977 124.539C209.977 123.945 209.492 123.461 208.906 123.461C208.312 123.461 207.828 123.945 207.828 124.539ZM211.93 124.219C212.016 125.828 213.289 127.211 215.609 127.211C217.891 127.211 219.602 125.719 219.602 123.453C219.602 121.297 217.969 119.906 216.078 119.906C214.883 119.906 214.047 120.453 213.789 120.82H213.734L214.047 117.797H218.805V116.328H212.602L212.062 122.562H213.594C213.867 121.969 214.516 121.305 215.703 121.305C216.891 121.305 217.844 122.164 217.844 123.523C217.844 124.969 216.711 125.766 215.688 125.766C214.555 125.766 213.734 125.203 213.586 124.219H211.93ZM221.102 124.328C221.18 125.633 222.312 127.195 224.617 127.195C227.227 127.195 228.734 125.055 228.734 121.5C228.734 117.734 227.156 116.133 224.695 116.133C222.75 116.133 220.984 117.469 220.984 119.789C220.984 122.086 222.586 123.297 224.305 123.297C225.797 123.297 226.688 122.539 226.969 121.742H227.047C227.07 124.055 226.289 125.758 224.672 125.758C223.523 125.758 222.891 125.008 222.797 124.328H221.102ZM226.836 119.781C226.836 121.031 225.867 121.906 224.734 121.906C223.633 121.906 222.688 121.188 222.688 119.75C222.688 118.297 223.695 117.57 224.766 117.57C225.914 117.57 226.836 118.312 226.836 119.781ZM233.688 116.336V127H235.461V123.219H237.773C239.945 123.219 241.289 121.797 241.289 119.781C241.289 117.789 239.961 116.336 237.781 116.336H233.688ZM235.461 117.805H237.516C238.75 117.805 239.484 118.523 239.484 119.781C239.484 121.367 238.516 121.766 236.883 121.766H235.461V117.805ZM244.5 127V119.633H244.562L247.328 125.867H248.602L251.359 119.633H251.43V127H253.031V116.336H251.258L248 123.836H247.945L244.688 116.336H242.906V127H244.5ZM265.281 125.508H260.391V122.297H265V120.867H260.391V117.828H265.281V116.336H258.625V127H265.281V125.508ZM271.156 127V117.852H274.289V116.336H266.266V117.852H269.398V127H271.156Z" fill="#959DA5"/>
<path d="M156.969 23H160.156L154.156 6.08984H150.746L144.746 23H147.863L149.305 18.6289H155.527L156.969 23ZM152.375 9.07812H152.457L154.812 16.2969H150.008L152.375 9.07812ZM168.5 10.3672C166.695 10.3672 165.289 11.2812 164.586 12.7227H164.527V10.5781H161.68V27.0898H164.598V20.9375H164.656C165.336 22.332 166.742 23.1992 168.547 23.1992C171.664 23.1992 173.656 20.75 173.656 16.7891C173.656 12.8164 171.652 10.3672 168.5 10.3672ZM167.609 20.8086C165.793 20.8086 164.586 19.2266 164.574 16.7891C164.586 14.375 165.793 12.7695 167.609 12.7695C169.496 12.7695 170.668 14.3398 170.668 16.7891C170.668 19.25 169.496 20.8086 167.609 20.8086ZM182.352 10.3672C180.547 10.3672 179.141 11.2812 178.438 12.7227H178.379V10.5781H175.531V27.0898H178.449V20.9375H178.508C179.188 22.332 180.594 23.1992 182.398 23.1992C185.516 23.1992 187.508 20.75 187.508 16.7891C187.508 12.8164 185.504 10.3672 182.352 10.3672ZM181.461 20.8086C179.645 20.8086 178.438 19.2266 178.426 16.7891C178.438 14.375 179.645 12.7695 181.461 12.7695C183.348 12.7695 184.52 14.3398 184.52 16.7891C184.52 19.25 183.348 20.8086 181.461 20.8086ZM189.465 23H192.383V6.08984H189.465V23ZM196.391 8.70312C197.281 8.70312 197.984 7.98828 197.984 7.12109C197.984 6.24219 197.281 5.53906 196.391 5.53906C195.5 5.53906 194.785 6.24219 194.785 7.12109C194.785 7.98828 195.5 8.70312 196.391 8.70312ZM194.938 23H197.855V10.5781H194.938V23ZM211.25 15.0078C211.051 12.3945 209.023 10.3203 205.742 10.3203C202.133 10.3203 199.789 12.8164 199.789 16.7891C199.789 20.8203 202.133 23.2461 205.766 23.2461C208.883 23.2461 211.027 21.418 211.262 18.6406H208.508C208.238 20.0469 207.277 20.8906 205.801 20.8906C203.949 20.8906 202.754 19.3906 202.754 16.7891C202.754 14.2344 203.938 12.6875 205.777 12.6875C207.336 12.6875 208.262 13.6836 208.496 15.0078H211.25ZM216.664 23.1992C218.258 23.1992 219.816 22.3672 220.531 21.0195H220.59V23H223.402V14.4453C223.402 11.9492 221.398 10.3203 218.316 10.3203C215.152 10.3203 213.172 11.9844 213.043 14.3047H215.75C215.938 13.2734 216.816 12.6055 218.199 12.6055C219.641 12.6055 220.52 13.3555 220.52 14.6562V15.5469L217.238 15.7344C214.215 15.9219 212.516 17.2461 212.516 19.4492C212.516 21.6875 214.262 23.1992 216.664 23.1992ZM217.543 20.9961C216.277 20.9961 215.434 20.3516 215.434 19.332C215.434 18.3477 216.242 17.7148 217.648 17.6211L220.52 17.4453V18.3945C220.52 19.8945 219.195 20.9961 217.543 20.9961ZM226.566 7.67188V10.5781H224.785V12.8281H226.566V19.6953C226.566 22.1094 227.621 23.0586 230.305 23.0586C230.926 23.0586 231.5 23.0117 231.816 22.9414V20.7148C231.629 20.75 231.254 20.7734 230.984 20.7734C229.953 20.7734 229.484 20.3047 229.484 19.2852V12.8281H231.828V10.5781H229.484V7.67188H226.566ZM235.344 8.70312C236.234 8.70312 236.938 7.98828 236.938 7.12109C236.938 6.24219 236.234 5.53906 235.344 5.53906C234.453 5.53906 233.738 6.24219 233.738 7.12109C233.738 7.98828 234.453 8.70312 235.344 8.70312ZM233.891 23H236.809V10.5781H233.891V23ZM244.754 23.2461C248.398 23.2461 250.766 20.8203 250.766 16.7891C250.766 12.7695 248.375 10.3203 244.754 10.3203C241.133 10.3203 238.742 12.7812 238.742 16.7891C238.742 20.8203 241.109 23.2461 244.754 23.2461ZM244.754 20.9375C242.902 20.9375 241.707 19.4375 241.707 16.7891C241.707 14.1523 242.914 12.6406 244.754 12.6406C246.605 12.6406 247.801 14.1523 247.801 16.7891C247.801 19.4375 246.605 20.9375 244.754 20.9375ZM252.641 23H255.559V15.8047C255.559 14.0234 256.625 12.8164 258.301 12.8164C259.965 12.8164 260.785 13.8008 260.785 15.5586V23H263.703V14.9727C263.703 12.1016 262.145 10.3438 259.402 10.3438C257.492 10.3438 256.168 11.2344 255.5 12.7109H255.441V10.5781H252.641V23ZM265.824 14.1406C265.824 15.9805 267.02 17.1523 269.398 17.6797L271.461 18.1367C272.762 18.4297 273.207 18.8516 273.207 19.6016C273.207 20.5273 272.328 21.1133 270.91 21.1133C269.434 21.1133 268.602 20.5039 268.379 19.2969H265.508C265.742 21.6992 267.664 23.2461 270.91 23.2461C273.957 23.2461 276.113 21.6641 276.113 19.3203C276.113 17.5156 275.117 16.5195 272.539 15.9453L270.477 15.4883C269.176 15.1953 268.66 14.7031 268.66 13.9883C268.66 13.0742 269.516 12.4648 270.805 12.4648C272.152 12.4648 272.984 13.1797 273.102 14.3047H275.82C275.75 11.9492 273.828 10.3203 270.805 10.3203C267.805 10.3203 265.824 11.8672 265.824 14.1406ZM283.074 6.08984V23H289.25C294.312 23 297.289 19.8594 297.289 14.5039C297.289 9.14844 294.301 6.08984 289.25 6.08984H283.074ZM286.098 8.64453H288.934C292.309 8.64453 294.207 10.7305 294.207 14.5156C294.207 18.3711 292.332 20.4453 288.934 20.4453H286.098V8.64453ZM310.414 10.5781H307.496V17.7617C307.496 19.5664 306.453 20.7617 304.766 20.7617C303.125 20.7617 302.258 19.8008 302.258 18.0195V10.5781H299.34V18.6055C299.34 21.4766 301.051 23.2227 303.746 23.2227C305.633 23.2227 306.887 22.3555 307.543 20.8438H307.602V23H310.414V10.5781ZM321.031 19.2852C320.715 20.3164 319.684 20.9961 318.324 20.9961C316.414 20.9961 315.195 19.6602 315.195 17.668V17.4922H323.879V16.543C323.879 12.7695 321.676 10.3203 318.148 10.3203C314.562 10.3203 312.289 12.9102 312.289 16.8359C312.289 20.7969 314.539 23.2461 318.266 23.2461C321.207 23.2461 323.387 21.6289 323.762 19.2852H321.031ZM318.16 12.582C319.836 12.582 320.961 13.8125 321.02 15.5703H315.219C315.336 13.8359 316.52 12.582 318.16 12.582Z" fill="#959DA5"/>
<path fill-rule="evenodd" clip-rule="evenodd" d="M578.252 59H242.248C241.36 55.5495 238.228 53 234.5 53C230.772 53 227.64 55.5495 226.752 59H0V63H226.752C227.64 66.4505 230.772 69 234.5 69C238.228 69 241.36 66.4505 242.248 63H578.252C579.14 66.4505 582.272 69 586 69C589.728 69 592.86 66.4505 593.748 63H930.252C931.14 66.4505 934.272 69 938 69C941.728 69 944.86 66.4505 945.748 63H1282.25C1283.14 66.4505 1286.27 69 1290 69C1294.42 69 1298 65.4183 1298 61C1298 56.5817 1294.42 53 1290 53C1286.27 53 1283.14 55.5495 1282.25 59H945.748C944.86 55.5495 941.728 53 938 53C934.272 53 931.14 55.5495 930.252 59H593.748C592.86 55.5495 589.728 53 586 53C582.272 53 579.14 55.5495 578.252 59Z" fill="#D1D5DA"/>
<path fill-rule="evenodd" clip-rule="evenodd" d="M242.248 59H286C287.105 59 288 59.8954 288 61C288 62.1046 287.105 63 286 63H242.248C241.36 66.4505 238.228 69 234.5 69C230.772 69 227.64 66.4505 226.752 63H0V59H226.752C227.64 55.5495 230.772 53 234.5 53C238.228 53 241.36 55.5495 242.248 59Z" fill="url(#paint0_linear)"/>
<defs>
<linearGradient id="paint0_linear" x1="1.74344e-06" y1="60.9999" x2="288" y2="60.9999" gradientUnits="userSpaceOnUse">
<stop stop-color="#B31B1B"/>
<stop offset="1" stop-color="#CA4238"/>
</linearGradient>
</defs>
</svg>
