<svg width="16" height="16" viewBox="0 0 16 16" fill="none" xmlns="http://www.w3.org/2000/svg">
<path d="M8.7975 2.6607C10.5165 0.941704 13.2551 1.10183 14.1146 1.96132C14.9741 2.82081 15.547 3.96696 10.1036 9.41032C4.66025 14.8537 3.08437 15.2836 1.93836 14.1376C0.792354 12.9916 1.47482 9.98338 2.33432 9.12388M8.7975 2.6607C8.7975 2.6607 9.48985 2.78005 10.6766 3.96682M8.7975 2.6607C8.35082 2.53438 6.80326 2.30678 5.77232 3.39388C4.74139 4.48097 4.8733 5.20497 4.8733 5.20497M2.33432 9.12388C3.53719 9.29558 3.76682 9.41038 4.626 10.2696M2.33432 9.12388C2.33432 9.12388 1.8275 7.3387 2.90732 6.25888C4.33982 4.82638 6.05882 4.82638 7.49132 6.25888" stroke="#2F363D" stroke-width="1.33333" stroke-linecap="round" stroke-linejoin="round"/>
</svg>
