<svg width="20" height="20" viewBox="0 0 20 20" fill="none" xmlns="http://www.w3.org/2000/svg">
<path d="M14.1666 1.66666H5.83329C3.53211 1.66666 1.66663 3.53214 1.66663 5.83333V14.1667C1.66663 16.4679 3.53211 18.3333 5.83329 18.3333H14.1666C16.4678 18.3333 18.3333 16.4679 18.3333 14.1667V5.83333C18.3333 3.53214 16.4678 1.66666 14.1666 1.66666Z" stroke="#959DA5" stroke-width="1.66667" stroke-linecap="round" stroke-linejoin="round"/>
<path d="M13.3333 9.475C13.4361 10.1685 13.3176 10.8768 12.9947 11.4992C12.6718 12.1215 12.1609 12.6262 11.5346 12.9414C10.9083 13.2566 10.1986 13.3663 9.50641 13.2549C8.81419 13.1436 8.17472 12.8167 7.67895 12.321C7.18318 11.8252 6.85636 11.1857 6.74497 10.4935C6.63359 9.80129 6.74331 9.09158 7.05852 8.46531C7.37374 7.83904 7.87841 7.32812 8.50074 7.0052C9.12307 6.68228 9.83138 6.56382 10.5249 6.66667C11.2324 6.77157 11.8873 7.10122 12.393 7.60692C12.8987 8.11262 13.2283 8.76756 13.3333 9.475Z" stroke="#959DA5" stroke-width="1.66667" stroke-linecap="round" stroke-linejoin="round"/>
<path d="M14.5834 5.41666H14.5917" stroke="#959DA5" stroke-width="1.66667" stroke-linecap="round" stroke-linejoin="round"/>
</svg>
