<svg width="20" height="20" viewBox="0 0 20 20" fill="none" xmlns="http://www.w3.org/2000/svg">
<path d="M13.3334 6.66666C14.6595 6.66666 15.9312 7.19345 16.8689 8.13113C17.8066 9.06881 18.3334 10.3406 18.3334 11.6667V17.5H15V11.6667C15 11.2246 14.8244 10.8007 14.5119 10.4882C14.1993 10.1756 13.7754 10 13.3334 10C12.8913 10 12.4674 10.1756 12.1549 10.4882C11.8423 10.8007 11.6667 11.2246 11.6667 11.6667V17.5H8.33337V11.6667C8.33337 10.3406 8.86016 9.06881 9.79784 8.13113C10.7355 7.19345 12.0073 6.66666 13.3334 6.66666V6.66666Z" stroke="#959DA5" stroke-width="1.66667" stroke-linecap="round" stroke-linejoin="round"/>
<path d="M4.99996 7.5H1.66663V17.5H4.99996V7.5Z" stroke="#959DA5" stroke-width="1.66667" stroke-linecap="round" stroke-linejoin="round"/>
<path d="M3.33329 5C4.25377 5 4.99996 4.25381 4.99996 3.33333C4.99996 2.41286 4.25377 1.66666 3.33329 1.66666C2.41282 1.66666 1.66663 2.41286 1.66663 3.33333C1.66663 4.25381 2.41282 5 3.33329 5Z" stroke="#959DA5" stroke-width="1.66667" stroke-linecap="round" stroke-linejoin="round"/>
</svg>
