<svg width="26" height="20" viewBox="0 0 26 20" fill="none" xmlns="http://www.w3.org/2000/svg">
<path d="M0 13.2895C0 10.6634 0.673802 8.16707 2.02141 5.80064C3.36901 3.40535 5.1121 1.4718 7.25069 0L10.5904 2.64059C9.12562 3.56407 7.83661 4.81944 6.72337 6.40668C5.63943 7.96506 5.00957 9.45129 4.8338 10.8654L5.31717 10.7788C5.61013 10.7211 5.8445 10.6922 6.02027 10.6922C7.27999 10.6922 8.31999 11.1395 9.14027 12.0342C9.98984 12.8999 10.4146 13.9677 10.4146 15.2375C10.4146 16.565 9.9459 17.6905 9.00844 18.614C8.07097 19.5375 6.92844 19.9992 5.58084 19.9992C3.99887 19.9992 2.66591 19.4076 1.58197 18.2244C0.527323 17.0123 0 15.3674 0 13.2895ZM14.3696 13.2895C14.3696 10.6634 15.0434 8.16707 16.391 5.80064C17.7679 3.40535 19.5256 1.4718 21.6642 0L25.0039 2.64059C23.5391 3.56407 22.2501 4.81944 21.1369 6.40668C20.0529 7.96506 19.4231 9.45129 19.2473 10.8654C19.2766 10.8654 19.4377 10.8365 19.7307 10.7788C20.0236 10.7211 20.2433 10.6922 20.3898 10.6922C21.6495 10.6922 22.7042 11.1395 23.5538 12.0342C24.4033 12.8999 24.8281 13.9677 24.8281 15.2375C24.8281 16.565 24.3448 17.6905 23.378 18.614C22.4405 19.5375 21.298 19.9992 19.9504 19.9992C18.3684 19.9992 17.0355 19.4076 15.9515 18.2244C14.8969 17.0123 14.3696 15.3674 14.3696 13.2895Z" fill="url(#paint0_linear)"/>
<defs>
<linearGradient id="paint0_linear" x1="0" y1="0" x2="6.78916" y2="8.3607" gradientUnits="userSpaceOnUse">
<stop stop-color="#6A737D"/>
<stop offset="0.9999" stop-color="#586069"/>
<stop offset="1" stop-color="#050505"/>
</linearGradient>
</defs>
</svg>
