<svg width="66" height="66" viewBox="0 0 66 66" fill="none" xmlns="http://www.w3.org/2000/svg">
<path fill-rule="evenodd" clip-rule="evenodd" d="M9 0C4.02944 0 0 4.02943 0 9V57C0 61.9706 4.02943 66 9 66H11.2437V40.7898C11.2437 40.7021 11.2656 40.6157 11.3073 40.5386L30.6736 4.72889C31.7721 2.69767 34.6872 2.6991 35.7837 4.73139L55.1034 40.5388C55.145 40.6158 55.1667 40.702 55.1667 40.7895V66H57C61.9706 66 66 61.9706 66 57V9C66 4.02944 61.9706 0 57 0H9ZM52.0858 66V41.9392L34.7991 31.7263V64.2841V64.4161C34.7991 65.2843 35.5067 65.9894 36.3725 66H52.0858ZM34.782 28.3141V9.43018L49.9026 37.0393L35.508 28.5517C35.508 28.5517 35.2934 28.4339 35.145 28.3867C35.0072 28.3429 34.782 28.3141 34.782 28.3141ZM44.022 65.0761C45.5894 65.0761 46.86 63.5691 46.86 61.7101C46.86 59.8511 45.5894 58.3441 44.022 58.3441C42.4546 58.3441 41.184 59.8511 41.184 61.7101C41.184 63.5691 42.4546 65.0761 44.022 65.0761ZM47.124 44.6246C47.124 43.818 47.7779 43.1641 48.5845 43.1641C49.3912 43.1641 50.0451 43.818 50.0451 44.6246V54.8639C50.0451 55.6705 49.3912 56.3245 48.5845 56.3245C47.7779 56.3245 47.124 55.6705 47.124 54.8639V44.6246ZM43.958 40.3921C43.1549 40.3921 42.504 41.0431 42.504 41.8461V52.319C42.504 53.122 43.1549 53.7729 43.958 53.7729C44.761 53.7729 45.4119 53.122 45.4119 52.319V41.8461C45.4119 41.0431 44.761 40.3921 43.958 40.3921ZM37.9671 39.5585C37.9671 38.7431 38.6281 38.0821 39.4435 38.0821C40.2589 38.0821 40.9199 38.7431 40.9199 39.5585V50.075C40.9199 50.8904 40.2589 51.5514 39.4435 51.5514C38.6281 51.5514 37.9671 50.8904 37.9671 50.075V39.5585Z" fill="#CA4238"/>
</svg>
