<svg width="414" height="133" viewBox="0 0 414 133" fill="none" xmlns="http://www.w3.org/2000/svg">
<rect x="259.627" y="13.0472" width="79.1411" height="79.1411" rx="16.0167" stroke="#CA4238" stroke-width="3.76862"/>
<path d="M299.198 65.8079L312.388 52.6177L318.041 58.2706L304.85 71.4608L299.198 65.8079Z" stroke="#CA4238" stroke-width="3.76862" stroke-linecap="round" stroke-linejoin="round"/>
<path d="M310.503 54.502L307.677 40.3696L280.354 33.7745L286.949 61.0971L301.082 63.9235L310.503 54.502Z" stroke="#CA4238" stroke-width="3.76862" stroke-linecap="round" stroke-linejoin="round"/>
<path d="M280.354 33.7745L294.649 48.0689" stroke="#CA4238" stroke-width="3.76862" stroke-linecap="round" stroke-linejoin="round"/>
<path d="M297.313 54.502C299.395 54.502 301.082 52.8147 301.082 50.7333C301.082 48.652 299.395 46.9647 297.313 46.9647C295.232 46.9647 293.545 48.652 293.545 50.7333C293.545 52.8147 295.232 54.502 297.313 54.502Z" stroke="#CA4238" stroke-width="3.76862" stroke-linecap="round" stroke-linejoin="round"/>
<rect x="351.975" y="26.2398" width="79.1411" height="79.1411" rx="16.0167" stroke="#1C834D" stroke-width="3.76862"/>
<rect x="370.818" y="63.926" width="5.65293" height="13.1902" rx="2.82647" stroke="#1C834D" stroke-width="3.76862"/>
<rect x="406.62" y="63.926" width="5.65293" height="13.1902" rx="2.82647" stroke="#1C834D" stroke-width="3.76862"/>
<path d="M382.124 63.926H400.967V81.6535C400.967 83.3103 399.624 84.6535 397.967 84.6535H385.124C383.467 84.6535 382.124 83.3103 382.124 81.6535V63.926Z" stroke="#1C834D" stroke-width="3.76862" stroke-linejoin="round"/>
<path d="M382.457 47.1042L383.784 48.4413L383.784 48.4413L382.457 47.1042ZM382.457 47.7656L383.784 46.4285L382.457 47.7656ZM383.123 47.1042L381.795 48.4413H381.795L383.123 47.1042ZM386.454 50.4115L385.126 51.7487L385.126 51.7487L386.454 50.4115ZM385.788 51.073L384.46 52.4102H384.46L385.788 51.073ZM382.124 59.2152H380.239C380.239 60.2559 381.083 61.0995 382.124 61.0995V59.2152ZM400.967 59.2152V61.0995C402.007 61.0995 402.851 60.2559 402.851 59.2152H400.967ZM399.974 47.1043L398.646 45.7671L398.646 45.7671L399.974 47.1043ZM400.64 47.1043L401.968 45.7671L401.968 45.7671L400.64 47.1043ZM396.643 50.4116L397.971 51.7488V51.7488L396.643 50.4116ZM396.643 51.0731L397.971 49.736L397.971 49.736L396.643 51.0731ZM397.309 51.0731L398.637 52.4103L398.637 52.4103L397.309 51.0731ZM400.64 47.7657L401.968 49.1029L401.968 49.1029L400.64 47.7657ZM381.129 45.767C380.203 46.6866 380.203 48.1832 381.129 49.1028L383.784 46.4285C384.343 46.9828 384.343 47.887 383.784 48.4413L381.129 45.767ZM384.451 45.767C383.532 44.8548 382.048 44.8548 381.129 45.767L383.784 48.4413C383.234 48.9882 382.346 48.9882 381.795 48.4413L384.451 45.767ZM387.782 49.0744L384.451 45.767L381.795 48.4413L385.126 51.7487L387.782 49.0744ZM387.782 52.4102C388.708 51.4906 388.708 49.994 387.782 49.0744L385.126 51.7487C384.568 51.1944 384.568 50.2902 385.126 49.7359L387.782 52.4102ZM384.46 52.4102C385.379 53.3224 386.863 53.3224 387.782 52.4102L385.126 49.7359C385.677 49.189 386.565 49.189 387.115 49.7359L384.46 52.4102ZM381.129 49.1028L384.46 52.4102L387.115 49.7359L383.784 46.4285L381.129 49.1028ZM384.008 59.2152C384.008 55.1021 387.37 51.7448 391.545 51.7448V47.9762C385.314 47.9762 380.239 52.9955 380.239 59.2152H384.008ZM400.967 57.3309H382.124V61.0995H400.967V57.3309ZM391.545 51.7448C395.721 51.7448 399.082 55.1021 399.082 59.2152H402.851C402.851 52.9955 397.777 47.9762 391.545 47.9762V51.7448ZM401.302 48.4414C400.751 48.9883 399.863 48.9883 399.313 48.4414L401.968 45.7671C401.049 44.8549 399.565 44.8549 398.646 45.7671L401.302 48.4414ZM397.971 51.7488L401.302 48.4414L398.646 45.7671L395.315 49.0745L397.971 51.7488ZM397.971 49.736C398.529 50.2903 398.529 51.1945 397.971 51.7488L395.315 49.0745C394.389 49.9941 394.389 51.4907 395.315 52.4103L397.971 49.736ZM395.982 49.736C396.532 49.1891 397.42 49.1891 397.971 49.736L395.315 52.4103C396.234 53.3225 397.718 53.3225 398.637 52.4103L395.982 49.736ZM399.313 46.4286L395.982 49.736L398.637 52.4103L401.968 49.1029L399.313 46.4286ZM399.313 48.4414C398.754 47.8871 398.754 46.9829 399.313 46.4286L401.968 49.1029C402.894 48.1833 402.894 46.6867 401.968 45.7671L399.313 48.4414Z" fill="#1C834D"/>
<rect x="-17.416" y="26.2398" width="79.1411" height="79.1411" rx="16.0167" stroke="#C84801" stroke-width="3.76862"/>
<path d="M28.9322 54.1837C26.1277 54.1837 23.8607 55.9183 22.4117 55.9183C20.8691 55.9183 18.8125 54.2788 16.3819 54.2788C11.7777 54.2788 7.08008 58.1757 7.08008 65.4706C7.08008 70.0566 8.83293 74.8565 10.9597 77.9693C12.806 80.6069 14.4187 82.7692 16.7091 82.7692C18.9994 82.7692 20.0278 81.2009 22.8791 81.2009C25.7538 81.2009 26.4081 82.7217 28.9322 82.7217C31.4564 82.7217 33.1157 80.3692 34.6816 78.0643C35.8884 76.2723 36.6205 74.5133 36.9732 73.5248C37.1376 73.0641 36.8969 72.585 36.4734 72.3402C35.0845 71.537 32.2743 69.3747 32.2743 65.0904C32.2743 61.5137 34.356 59.4002 35.518 58.4787C35.9283 58.1534 36.0479 57.597 35.7115 57.1958C33.2546 54.2655 29.9076 54.1837 28.9322 54.1837ZM27.6235 47.3261C28.7687 45.9241 29.5633 43.9994 29.5633 42.0747V42.0747C29.5633 41.6321 29.1693 41.3205 28.7341 41.4012C27.0629 41.7111 25.225 42.7898 24.071 44.1895C23.0193 45.4014 22.0377 47.3261 22.0377 49.2745C22.0377 49.3409 22.0402 49.4085 22.0444 49.4744C22.0635 49.7753 22.2971 50.0112 22.5986 50.0112V50.0112C24.2814 50.0112 26.3848 48.8706 27.6235 47.3261Z" stroke="#C84801" stroke-width="3.76862"/>
<rect x="167.279" y="51.6099" width="79.1411" height="79.1411" rx="16.0167" stroke="#0C66D4" stroke-width="3.76862"/>
<path d="M214.387 102.486L225.693 91.1804L214.387 79.8745" stroke="#0C66D4" stroke-width="3.76862" stroke-linecap="round" stroke-linejoin="round"/>
<path d="M199.313 79.8745L188.007 91.1804L199.313 102.486" stroke="#0C66D4" stroke-width="3.76862" stroke-linecap="round" stroke-linejoin="round"/>
<rect x="74.9317" y="1.88431" width="79.1411" height="79.1411" rx="16.0167" stroke="#FFAF14" stroke-width="3.76862"/>
<rect x="99.4277" y="22.6117" width="30.149" height="37.6862" stroke="#FFAF14" stroke-width="3.76862" stroke-linecap="round" stroke-linejoin="round"/>
<path d="M99.4277 60.298L106.965 45.2235L119.213 48.9921L129.577 26.3804" stroke="#FFAF14" stroke-width="3.76862" stroke-linecap="round" stroke-linejoin="round"/>
</svg>
