<svg width="244" height="596" viewBox="0 0 244 596" fill="none" xmlns="http://www.w3.org/2000/svg">
<g clip-path="url(#clip0)">
<path d="M119.089 246.051V241.645H123.479V240.16H119.089V236.895H123.893V235.387H117.315V246.051H119.089ZM129.612 235.387H125.534V246.051H127.292V241.949H129.503L131.417 246.051H133.409L131.253 241.652C132.12 241.332 133.206 240.426 133.206 238.668C133.206 236.887 132.073 235.387 129.612 235.387ZM127.292 240.543V236.84H129.37C130.565 236.84 131.385 237.473 131.385 238.73C131.385 239.902 130.643 240.543 129.323 240.543H127.292ZM136.995 246.051V235.387H135.221V246.051H136.995ZM139.776 248.34L140.964 244.41H139.284L138.518 248.34H139.776ZM145.292 243.09C145.331 244.527 146.323 246.262 149.292 246.262C151.706 246.262 153.401 245.082 153.401 242.988C153.401 241.176 152.182 240.418 150.581 240.027L148.839 239.598C147.846 239.371 147.362 238.871 147.362 238.176C147.362 237.184 148.19 236.605 149.409 236.605C150.792 236.605 151.487 237.355 151.565 238.262H153.268C153.229 236.27 151.503 235.152 149.432 235.152C147.362 235.152 145.581 236.27 145.581 238.309C145.581 240.043 146.815 240.863 148.19 241.184L149.94 241.621C151.081 241.895 151.628 242.332 151.628 243.145C151.628 244.152 150.807 244.801 149.425 244.801C147.917 244.801 147.104 244.012 147.026 243.09H145.292ZM161.925 244.559H157.034V241.348H161.643V239.918H157.034V236.879H161.925V235.387H155.268V246.051H161.925V244.559ZM168.065 235.387H163.971V246.051H165.745V242.27H168.057C170.229 242.27 171.573 240.848 171.573 238.832C171.573 236.84 170.245 235.387 168.065 235.387ZM169.768 238.832C169.768 240.418 168.8 240.816 167.167 240.816H165.745V236.855H167.8C169.034 236.855 169.768 237.574 169.768 238.832ZM177.159 246.051V236.902H180.292V235.387H172.268V236.902H175.401V246.051H177.159ZM188.659 246.051V235.387H186.971C186.143 235.855 185.19 236.441 184.378 237.012V238.707C185.128 238.184 186.237 237.496 186.854 237.137H186.909V246.051H188.659ZM194.698 246.262C197.057 246.262 198.682 244.98 198.682 243.121C198.682 241.457 197.425 240.652 196.487 240.449V240.402C197.284 240.152 198.268 239.418 198.268 238.004C198.268 236.371 196.823 235.176 194.729 235.176C192.635 235.176 191.182 236.371 191.182 238.004C191.182 239.395 192.128 240.145 192.956 240.402V240.449C192.026 240.652 190.76 241.441 190.76 243.137C190.76 244.988 192.346 246.262 194.698 246.262ZM194.729 239.848C193.667 239.848 192.885 239.16 192.885 238.176C192.885 237.199 193.667 236.535 194.729 236.535C195.792 236.535 196.565 237.199 196.565 238.176C196.565 239.16 195.792 239.848 194.729 239.848ZM194.729 244.918C193.471 244.918 192.51 244.152 192.51 243.035C192.51 241.91 193.471 241.137 194.729 241.137C195.987 241.137 196.94 241.91 196.94 243.035C196.94 244.152 195.987 244.918 194.729 244.918ZM124.596 265.051V254.387H122.909C122.081 254.855 121.128 255.441 120.315 256.012V257.707C121.065 257.184 122.175 256.496 122.792 256.137H122.846V265.051H124.596ZM131.034 265.051V254.387H129.346C128.518 254.855 127.565 255.441 126.753 256.012V257.707C127.503 257.184 128.612 256.496 129.229 256.137H129.284V265.051H131.034ZM132.8 257.105C132.8 257.691 133.284 258.176 133.878 258.176C134.464 258.176 134.948 257.691 134.948 257.105C134.948 256.52 134.464 256.035 133.878 256.035C133.284 256.035 132.8 256.52 132.8 257.105ZM132.8 262.59C132.8 263.176 133.284 263.66 133.878 263.66C134.464 263.66 134.948 263.176 134.948 262.59C134.948 261.996 134.464 261.512 133.878 261.512C133.284 261.512 132.8 261.996 132.8 262.59ZM136.901 262.27C136.987 263.879 138.26 265.262 140.581 265.262C142.862 265.262 144.573 263.77 144.573 261.504C144.573 259.348 142.94 257.957 141.05 257.957C139.854 257.957 139.018 258.504 138.76 258.871H138.706L139.018 255.848H143.776V254.379H137.573L137.034 260.613H138.565C138.839 260.02 139.487 259.355 140.675 259.355C141.862 259.355 142.815 260.215 142.815 261.574C142.815 263.02 141.682 263.816 140.659 263.816C139.526 263.816 138.706 263.254 138.557 262.27H136.901ZM146.073 262.379C146.151 263.684 147.284 265.246 149.589 265.246C152.198 265.246 153.706 263.105 153.706 259.551C153.706 255.785 152.128 254.184 149.667 254.184C147.721 254.184 145.956 255.52 145.956 257.84C145.956 260.137 147.557 261.348 149.276 261.348C150.768 261.348 151.659 260.59 151.94 259.793H152.018C152.042 262.105 151.26 263.809 149.643 263.809C148.495 263.809 147.862 263.059 147.768 262.379H146.073ZM151.807 257.832C151.807 259.082 150.839 259.957 149.706 259.957C148.604 259.957 147.659 259.238 147.659 257.801C147.659 256.348 148.667 255.621 149.737 255.621C150.885 255.621 151.807 256.363 151.807 257.832ZM162.753 254.387H158.659V265.051H160.432V261.27H162.745C164.917 261.27 166.26 259.848 166.26 257.832C166.26 255.84 164.932 254.387 162.753 254.387ZM164.456 257.832C164.456 259.418 163.487 259.816 161.854 259.816H160.432V255.855H162.487C163.721 255.855 164.456 256.574 164.456 257.832ZM169.471 265.051V257.684H169.534L172.3 263.918H173.573L176.331 257.684H176.401V265.051H178.003V254.387H176.229L172.971 261.887H172.917L169.659 254.387H167.878V265.051H169.471ZM190.253 263.559H185.362V260.348H189.971V258.918H185.362V255.879H190.253V254.387H183.596V265.051H190.253V263.559ZM196.128 265.051V255.902H199.26V254.387H191.237V255.902H194.37V265.051H196.128Z" fill="#586069"/>
<path d="M73.6998 219.051H76.0904L71.5904 206.368H69.0328L64.5328 219.051H66.8707L67.9518 215.772H72.6188L73.6998 219.051ZM70.2545 208.609H70.316L72.0826 214.023H68.4791L70.2545 208.609ZM82.3483 209.576C80.9947 209.576 79.94 210.262 79.4127 211.343H79.3688V209.734H77.233V222.118H79.4215V217.504H79.4654C79.9752 218.55 81.0299 219.2 82.3834 219.2C84.7213 219.2 86.2154 217.363 86.2154 214.393C86.2154 211.413 84.7125 209.576 82.3483 209.576ZM81.6803 217.407C80.318 217.407 79.4127 216.221 79.4039 214.393C79.4127 212.582 80.318 211.378 81.6803 211.378C83.0953 211.378 83.9742 212.556 83.9742 214.393C83.9742 216.238 83.0953 217.407 81.6803 217.407ZM92.7369 209.576C91.3834 209.576 90.3287 210.262 89.8014 211.343H89.7574V209.734H87.6217V222.118H89.8102V217.504H89.8541C90.3639 218.55 91.4186 219.2 92.7721 219.2C95.11 219.2 96.6041 217.363 96.6041 214.393C96.6041 211.413 95.1012 209.576 92.7369 209.576ZM92.069 217.407C90.7066 217.407 89.8014 216.221 89.7926 214.393C89.8014 212.582 90.7066 211.378 92.069 211.378C93.484 211.378 94.3629 212.556 94.3629 214.393C94.3629 216.238 93.484 217.407 92.069 217.407ZM98.0719 219.051H100.26V206.368H98.0719V219.051ZM103.266 208.328C103.934 208.328 104.462 207.792 104.462 207.142C104.462 206.482 103.934 205.955 103.266 205.955C102.598 205.955 102.062 206.482 102.062 207.142C102.062 207.792 102.598 208.328 103.266 208.328ZM102.176 219.051H104.365V209.734H102.176V219.051ZM114.411 213.057C114.261 211.097 112.741 209.541 110.28 209.541C107.573 209.541 105.815 211.413 105.815 214.393C105.815 217.416 107.573 219.235 110.297 219.235C112.635 219.235 114.244 217.864 114.42 215.781H112.354C112.152 216.836 111.431 217.469 110.324 217.469C108.935 217.469 108.039 216.344 108.039 214.393C108.039 212.477 108.926 211.316 110.306 211.316C111.475 211.316 112.17 212.063 112.345 213.057H114.411ZM118.471 219.2C119.667 219.2 120.836 218.576 121.372 217.565H121.416V219.051H123.525V212.635C123.525 210.763 122.022 209.541 119.711 209.541C117.338 209.541 115.852 210.789 115.755 212.529H117.786C117.926 211.756 118.586 211.255 119.623 211.255C120.704 211.255 121.363 211.817 121.363 212.793V213.461L118.902 213.602C116.634 213.742 115.36 214.735 115.36 216.388C115.36 218.066 116.67 219.2 118.471 219.2ZM119.13 217.548C118.181 217.548 117.548 217.064 117.548 216.3C117.548 215.562 118.155 215.087 119.21 215.017L121.363 214.885V215.597C121.363 216.722 120.37 217.548 119.13 217.548ZM125.898 207.555V209.734H124.562V211.422H125.898V216.572C125.898 218.383 126.689 219.095 128.702 219.095C129.168 219.095 129.598 219.06 129.836 219.007V217.337C129.695 217.363 129.414 217.381 129.212 217.381C128.438 217.381 128.087 217.029 128.087 216.265V211.422H129.844V209.734H128.087V207.555H125.898ZM132.481 208.328C133.149 208.328 133.676 207.792 133.676 207.142C133.676 206.482 133.149 205.955 132.481 205.955C131.813 205.955 131.277 206.482 131.277 207.142C131.277 207.792 131.813 208.328 132.481 208.328ZM131.391 219.051H133.58V209.734H131.391V219.051ZM139.539 219.235C142.272 219.235 144.047 217.416 144.047 214.393C144.047 211.378 142.255 209.541 139.539 209.541C136.823 209.541 135.03 211.387 135.03 214.393C135.03 217.416 136.805 219.235 139.539 219.235ZM139.539 217.504C138.15 217.504 137.254 216.379 137.254 214.393C137.254 212.415 138.159 211.281 139.539 211.281C140.927 211.281 141.824 212.415 141.824 214.393C141.824 216.379 140.927 217.504 139.539 217.504ZM145.454 219.051H147.642V213.654C147.642 212.318 148.442 211.413 149.699 211.413C150.947 211.413 151.562 212.151 151.562 213.47V219.051H153.751V213.03C153.751 210.877 152.582 209.559 150.525 209.559C149.092 209.559 148.099 210.227 147.598 211.334H147.554V209.734H145.454V219.051ZM155.341 212.406C155.341 213.786 156.238 214.665 158.022 215.061L159.569 215.403C160.545 215.623 160.879 215.939 160.879 216.502C160.879 217.196 160.219 217.636 159.156 217.636C158.048 217.636 157.424 217.179 157.257 216.273H155.104C155.28 218.075 156.721 219.235 159.156 219.235C161.441 219.235 163.058 218.049 163.058 216.291C163.058 214.938 162.311 214.19 160.378 213.76L158.831 213.417C157.855 213.197 157.468 212.828 157.468 212.292C157.468 211.606 158.11 211.149 159.077 211.149C160.088 211.149 160.712 211.686 160.799 212.529H162.838C162.786 210.763 161.344 209.541 159.077 209.541C156.827 209.541 155.341 210.701 155.341 212.406ZM168.279 206.368V219.051H172.911C176.708 219.051 178.94 216.695 178.94 212.679C178.94 208.662 176.699 206.368 172.911 206.368H168.279ZM170.546 208.284H172.673C175.205 208.284 176.629 209.849 176.629 212.688C176.629 215.579 175.222 217.135 172.673 217.135H170.546V208.284ZM188.784 209.734H186.595V215.122C186.595 216.476 185.813 217.372 184.547 217.372C183.317 217.372 182.667 216.651 182.667 215.315V209.734H180.478V215.755C180.478 217.908 181.761 219.218 183.783 219.218C185.198 219.218 186.138 218.567 186.63 217.434H186.674V219.051H188.784V209.734ZM196.747 216.265C196.509 217.038 195.736 217.548 194.716 217.548C193.284 217.548 192.37 216.546 192.37 215.052V214.92H198.882V214.208C198.882 211.378 197.23 209.541 194.585 209.541C191.895 209.541 190.19 211.483 190.19 214.428C190.19 217.398 191.878 219.235 194.672 219.235C196.879 219.235 198.513 218.022 198.795 216.265H196.747ZM194.593 211.237C195.85 211.237 196.694 212.16 196.738 213.479H192.387C192.475 212.178 193.363 211.237 194.593 211.237Z" fill="#2F363D"/>
<path d="M108.327 531.051V521.902H111.46V520.387H103.437V521.902H106.569V531.051H108.327ZM117.101 529.73C115.632 529.73 114.671 528.793 114.671 527.23V520.387H112.913V527.473C112.913 529.707 114.483 531.262 117.101 531.262C119.71 531.262 121.288 529.707 121.288 527.473V520.387H119.522V527.23C119.522 528.785 118.562 529.73 117.101 529.73ZM130.218 529.559H125.327V526.348H129.937V524.918H125.327V521.879H130.218V520.387H123.562V531.051H130.218V529.559ZM132.647 533.34L133.835 529.41H132.155L131.39 533.34H132.647ZM138.163 528.09C138.202 529.527 139.194 531.262 142.163 531.262C144.577 531.262 146.272 530.082 146.272 527.988C146.272 526.176 145.054 525.418 143.452 525.027L141.71 524.598C140.718 524.371 140.233 523.871 140.233 523.176C140.233 522.184 141.062 521.605 142.28 521.605C143.663 521.605 144.358 522.355 144.437 523.262H146.14C146.101 521.27 144.374 520.152 142.304 520.152C140.233 520.152 138.452 521.27 138.452 523.309C138.452 525.043 139.687 525.863 141.062 526.184L142.812 526.621C143.952 526.895 144.499 527.332 144.499 528.145C144.499 529.152 143.679 529.801 142.296 529.801C140.788 529.801 139.976 529.012 139.897 528.09H138.163ZM154.796 529.559H149.905V526.348H154.515V524.918H149.905V521.879H154.796V520.387H148.14V531.051H154.796V529.559ZM160.937 520.387H156.843V531.051H158.616V527.27H160.929C163.101 527.27 164.444 525.848 164.444 523.832C164.444 521.84 163.116 520.387 160.937 520.387ZM162.64 523.832C162.64 525.418 161.671 525.816 160.038 525.816H158.616V521.855H160.671C161.905 521.855 162.64 522.574 162.64 523.832ZM170.03 531.051V521.902H173.163V520.387H165.14V521.902H168.272V531.051H170.03ZM178.983 523.465V523.371C178.983 522.441 179.663 521.629 180.772 521.629C181.78 521.629 182.522 522.27 182.522 523.277C182.522 524.16 181.968 524.84 181.319 525.551L177.39 529.941V531.051H184.491V529.574H179.827V529.527L182.452 526.52C183.585 525.254 184.296 524.387 184.296 523.129C184.296 521.418 182.921 520.176 180.843 520.176C178.616 520.176 177.288 521.652 177.288 523.379V523.465H178.983ZM186.069 528.379C186.147 529.684 187.28 531.246 189.585 531.246C192.194 531.246 193.702 529.105 193.702 525.551C193.702 521.785 192.124 520.184 189.663 520.184C187.718 520.184 185.952 521.52 185.952 523.84C185.952 526.137 187.554 527.348 189.272 527.348C190.765 527.348 191.655 526.59 191.937 525.793H192.015C192.038 528.105 191.257 529.809 189.64 529.809C188.491 529.809 187.858 529.059 187.765 528.379H186.069ZM191.804 523.832C191.804 525.082 190.835 525.957 189.702 525.957C188.601 525.957 187.655 525.238 187.655 523.801C187.655 522.348 188.663 521.621 189.733 521.621C190.882 521.621 191.804 522.363 191.804 523.832Z" fill="#586069"/>
<path d="M40.5234 491.368V504.051H45.1552C48.9521 504.051 51.1845 501.695 51.1845 497.679C51.1845 493.662 48.9433 491.368 45.1552 491.368H40.5234ZM42.791 493.284H44.9179C47.4492 493.284 48.873 494.849 48.873 497.688C48.873 500.579 47.4668 502.135 44.9179 502.135H42.791V493.284ZM58.9365 501.265C58.6992 502.038 57.9258 502.548 56.9062 502.548C55.4736 502.548 54.5595 501.546 54.5595 500.052V499.92H61.0722V499.208C61.0722 496.378 59.4199 494.541 56.7744 494.541C54.0849 494.541 52.3799 496.483 52.3799 499.428C52.3799 502.398 54.0674 504.235 56.8623 504.235C59.0683 504.235 60.7031 503.022 60.9843 501.265H58.9365ZM56.7832 496.237C58.04 496.237 58.8838 497.16 58.9277 498.479H54.5771C54.665 497.178 55.5527 496.237 56.7832 496.237ZM70.6963 498.057C70.5468 496.097 69.0263 494.541 66.5654 494.541C63.8584 494.541 62.1006 496.413 62.1006 499.393C62.1006 502.416 63.8584 504.235 66.583 504.235C68.9209 504.235 70.5293 502.864 70.705 500.781H68.6396C68.4375 501.836 67.7168 502.469 66.6093 502.469C65.2207 502.469 64.3242 501.344 64.3242 499.393C64.3242 497.477 65.2119 496.316 66.5918 496.316C67.7607 496.316 68.455 497.063 68.6308 498.057H70.6963ZM73.1572 493.328C73.8252 493.328 74.3525 492.792 74.3525 492.142C74.3525 491.482 73.8252 490.955 73.1572 490.955C72.4892 490.955 71.9531 491.482 71.9531 492.142C71.9531 492.792 72.4892 493.328 73.1572 493.328ZM72.0674 504.051H74.2558V494.734H72.0674V504.051ZM75.9258 497.406C75.9258 498.786 76.8222 499.665 78.6064 500.061L80.1533 500.403C81.1289 500.623 81.4629 500.939 81.4629 501.502C81.4629 502.196 80.8037 502.636 79.7402 502.636C78.6328 502.636 78.0088 502.179 77.8418 501.273H75.6884C75.8642 503.075 77.3056 504.235 79.7402 504.235C82.0254 504.235 83.6425 503.049 83.6425 501.291C83.6425 499.938 82.8955 499.19 80.9619 498.76L79.415 498.417C78.4394 498.197 78.0527 497.828 78.0527 497.292C78.0527 496.606 78.6943 496.149 79.6611 496.149C80.6718 496.149 81.2959 496.686 81.3838 497.529H83.4228C83.3701 495.763 81.9287 494.541 79.6611 494.541C77.4111 494.541 75.9258 495.701 75.9258 497.406ZM86.1826 493.328C86.8506 493.328 87.3779 492.792 87.3779 492.142C87.3779 491.482 86.8506 490.955 86.1826 490.955C85.5146 490.955 84.9785 491.482 84.9785 492.142C84.9785 492.792 85.5146 493.328 86.1826 493.328ZM85.0927 504.051H87.2812V494.734H85.0927V504.051ZM93.2402 504.235C95.9736 504.235 97.749 502.416 97.749 499.393C97.749 496.378 95.956 494.541 93.2402 494.541C90.5244 494.541 88.7314 496.387 88.7314 499.393C88.7314 502.416 90.5068 504.235 93.2402 504.235ZM93.2402 502.504C91.8515 502.504 90.955 501.379 90.955 499.393C90.955 497.415 91.8603 496.281 93.2402 496.281C94.6289 496.281 95.5254 497.415 95.5254 499.393C95.5254 501.379 94.6289 502.504 93.2402 502.504ZM99.1552 504.051H101.344V498.654C101.344 497.318 102.144 496.413 103.4 496.413C104.648 496.413 105.264 497.151 105.264 498.47V504.051H107.452V498.03C107.452 495.877 106.283 494.559 104.227 494.559C102.794 494.559 101.801 495.227 101.3 496.334H101.256V494.734H99.1552V504.051ZM109.043 497.406C109.043 498.786 109.939 499.665 111.724 500.061L113.27 500.403C114.246 500.623 114.58 500.939 114.58 501.502C114.58 502.196 113.921 502.636 112.857 502.636C111.75 502.636 111.126 502.179 110.959 501.273H108.806C108.981 503.075 110.423 504.235 112.857 504.235C115.143 504.235 116.76 503.049 116.76 501.291C116.76 499.938 116.013 499.19 114.079 498.76L112.532 498.417C111.557 498.197 111.17 497.828 111.17 497.292C111.17 496.606 111.811 496.149 112.778 496.149C113.789 496.149 114.413 496.686 114.501 497.529H116.54C116.487 495.763 115.046 494.541 112.778 494.541C110.528 494.541 109.043 495.701 109.043 497.406ZM124.248 499.278H126.7L129.196 504.051H131.78L129.012 498.936C130.523 498.391 131.402 496.993 131.402 495.314C131.402 492.889 129.759 491.368 127.017 491.368H121.98V504.051H124.248V499.278ZM124.248 493.205H126.762C128.194 493.205 129.082 494.031 129.082 495.367C129.082 496.738 128.247 497.538 126.806 497.538H124.248V493.205ZM139.128 501.265C138.891 502.038 138.117 502.548 137.098 502.548C135.665 502.548 134.751 501.546 134.751 500.052V499.92H141.264V499.208C141.264 496.378 139.611 494.541 136.966 494.541C134.276 494.541 132.571 496.483 132.571 499.428C132.571 502.398 134.259 504.235 137.054 504.235C139.26 504.235 140.895 503.022 141.176 501.265H139.128ZM136.975 496.237C138.231 496.237 139.075 497.16 139.119 498.479H134.769C134.856 497.178 135.744 496.237 136.975 496.237ZM142.74 504.051H144.929V491.368H142.74V504.051ZM152.962 501.265C152.725 502.038 151.951 502.548 150.932 502.548C149.499 502.548 148.585 501.546 148.585 500.052V499.92H155.098V499.208C155.098 496.378 153.445 494.541 150.8 494.541C148.11 494.541 146.405 496.483 146.405 499.428C146.405 502.398 148.093 504.235 150.888 504.235C153.094 504.235 154.728 503.022 155.01 501.265H152.962ZM150.809 496.237C152.065 496.237 152.909 497.16 152.953 498.479H148.603C148.69 497.178 149.578 496.237 150.809 496.237ZM159.255 504.2C160.45 504.2 161.619 503.576 162.155 502.565H162.199V504.051H164.309V497.635C164.309 495.763 162.806 494.541 160.494 494.541C158.121 494.541 156.636 495.789 156.539 497.529H158.569C158.71 496.756 159.369 496.255 160.406 496.255C161.487 496.255 162.146 496.817 162.146 497.793V498.461L159.686 498.602C157.418 498.742 156.144 499.735 156.144 501.388C156.144 503.066 157.453 504.2 159.255 504.2ZM159.914 502.548C158.965 502.548 158.332 502.064 158.332 501.3C158.332 500.562 158.938 500.087 159.993 500.017L162.146 499.885V500.597C162.146 501.722 161.153 502.548 159.914 502.548ZM165.908 497.406C165.908 498.786 166.805 499.665 168.589 500.061L170.136 500.403C171.111 500.623 171.445 500.939 171.445 501.502C171.445 502.196 170.786 502.636 169.723 502.636C168.615 502.636 167.991 502.179 167.824 501.273H165.671C165.847 503.075 167.288 504.235 169.723 504.235C172.008 504.235 173.625 503.049 173.625 501.291C173.625 499.938 172.878 499.19 170.944 498.76L169.397 498.417C168.422 498.197 168.035 497.828 168.035 497.292C168.035 496.606 168.677 496.149 169.644 496.149C170.654 496.149 171.278 496.686 171.366 497.529H173.405C173.353 495.763 171.911 494.541 169.644 494.541C167.394 494.541 165.908 495.701 165.908 497.406ZM181.192 501.265C180.955 502.038 180.182 502.548 179.162 502.548C177.729 502.548 176.815 501.546 176.815 500.052V499.92H183.328V499.208C183.328 496.378 181.676 494.541 179.03 494.541C176.341 494.541 174.636 496.483 174.636 499.428C174.636 502.398 176.323 504.235 179.118 504.235C181.324 504.235 182.959 503.022 183.24 501.265H181.192ZM179.039 496.237C180.296 496.237 181.14 497.16 181.184 498.479H176.833C176.921 497.178 177.809 496.237 179.039 496.237ZM188.224 504.2C189.586 504.2 190.658 503.506 191.168 502.46H191.203V504.051H193.348V491.368H191.159V496.299H191.106C190.614 495.271 189.56 494.576 188.224 494.576C185.877 494.576 184.356 496.439 184.356 499.384C184.356 502.346 185.877 504.2 188.224 504.2ZM188.883 496.378C190.263 496.378 191.168 497.564 191.168 499.393C191.168 501.238 190.263 502.407 188.883 502.407C187.468 502.407 186.598 501.247 186.598 499.393C186.598 497.547 187.477 496.378 188.883 496.378Z" fill="#2F363D"/>
<path d="M7.34634 398.051V390.684H7.40884L10.1745 396.918H11.4479L14.2057 390.684H14.276V398.051H15.8776V387.387H14.1042L10.8463 394.887H10.7917L7.53384 387.387H5.75259V398.051H7.34634ZM26.7526 393.496V392.035C26.7526 389.012 25.0573 387.176 22.3229 387.176C19.6042 387.176 17.8776 389.004 17.8776 392.035V393.496C17.8776 396.512 19.5729 398.262 22.3073 398.262C25.0338 398.262 26.7526 396.512 26.7526 393.496ZM24.9557 392.02V393.496C24.9557 395.707 23.8307 396.754 22.3151 396.754C20.7995 396.754 19.6667 395.707 19.6667 393.496V392.02C19.6667 389.816 20.7995 388.691 22.3151 388.691C23.8307 388.691 24.9557 389.816 24.9557 392.02ZM30.3932 398.051V390.371H30.4401L35.4948 398.051H37.0417V387.387H35.3776V395.043H35.3229L30.2838 387.387H28.7213V398.051H30.3932ZM39.8229 400.34L41.0104 396.41H39.3307L38.5651 400.34H39.8229ZM45.3385 395.09C45.3776 396.527 46.3698 398.262 49.3385 398.262C51.7526 398.262 53.4479 397.082 53.4479 394.988C53.4479 393.176 52.2292 392.418 50.6276 392.027L48.8854 391.598C47.8932 391.371 47.4088 390.871 47.4088 390.176C47.4088 389.184 48.237 388.605 49.4557 388.605C50.8385 388.605 51.5338 389.355 51.612 390.262H53.3151C53.276 388.27 51.5495 387.152 49.4792 387.152C47.4088 387.152 45.6276 388.27 45.6276 390.309C45.6276 392.043 46.862 392.863 48.237 393.184L49.987 393.621C51.1276 393.895 51.6745 394.332 51.6745 395.145C51.6745 396.152 50.8542 396.801 49.4713 396.801C47.9635 396.801 47.151 396.012 47.0729 395.09H45.3385ZM61.9713 396.559H57.0807V393.348H61.6901V391.918H57.0807V388.879H61.9713V387.387H55.3151V398.051H61.9713V396.559ZM68.112 387.387H64.0182V398.051H65.7917V394.27H68.1042C70.276 394.27 71.6198 392.848 71.6198 390.832C71.6198 388.84 70.2917 387.387 68.112 387.387ZM69.8151 390.832C69.8151 392.418 68.8463 392.816 67.2135 392.816H65.7917V388.855H67.8463C69.0807 388.855 69.8151 389.574 69.8151 390.832ZM77.2057 398.051V388.902H80.3385V387.387H72.3151V388.902H75.4479V398.051H77.2057ZM86.1588 390.465V390.371C86.1588 389.441 86.8385 388.629 87.9479 388.629C88.9557 388.629 89.6979 389.27 89.6979 390.277C89.6979 391.16 89.1432 391.84 88.4948 392.551L84.5651 396.941V398.051H91.6667V396.574H87.0026V396.527L89.6276 393.52C90.7604 392.254 91.4713 391.387 91.4713 390.129C91.4713 388.418 90.0963 387.176 88.0182 387.176C85.7917 387.176 84.4635 388.652 84.4635 390.379V390.465H86.1588ZM94.9557 390.465V390.371C94.9557 389.441 95.6354 388.629 96.7448 388.629C97.7526 388.629 98.4948 389.27 98.4948 390.277C98.4948 391.16 97.9401 391.84 97.2917 392.551L93.362 396.941V398.051H100.464V396.574H95.7995V396.527L98.4245 393.52C99.5573 392.254 100.268 391.387 100.268 390.129C100.268 388.418 98.8932 387.176 96.8151 387.176C94.5885 387.176 93.2604 388.652 93.2604 390.379V390.465H94.9557ZM109.956 394.449V392.902H105.034V394.449H109.956ZM116.714 398.051V393.645H121.104V392.16H116.714V388.895H121.518V387.387H114.94V398.051H116.714ZM127.237 387.387H123.159V398.051H124.917V393.949H127.128L129.042 398.051H131.034L128.878 393.652C129.745 393.332 130.831 392.426 130.831 390.668C130.831 388.887 129.698 387.387 127.237 387.387ZM124.917 392.543V388.84H126.995C128.19 388.84 129.01 389.473 129.01 390.73C129.01 391.902 128.268 392.543 126.948 392.543H124.917ZM134.62 398.051V387.387H132.846V398.051H134.62ZM137.401 400.34L138.589 396.41H136.909L136.143 400.34H137.401ZM142.917 395.09C142.956 396.527 143.948 398.262 146.917 398.262C149.331 398.262 151.026 397.082 151.026 394.988C151.026 393.176 149.807 392.418 148.206 392.027L146.464 391.598C145.471 391.371 144.987 390.871 144.987 390.176C144.987 389.184 145.815 388.605 147.034 388.605C148.417 388.605 149.112 389.355 149.19 390.262H150.893C150.854 388.27 149.128 387.152 147.057 387.152C144.987 387.152 143.206 388.27 143.206 390.309C143.206 392.043 144.44 392.863 145.815 393.184L147.565 393.621C148.706 393.895 149.253 394.332 149.253 395.145C149.253 396.152 148.432 396.801 147.049 396.801C145.542 396.801 144.729 396.012 144.651 395.09H142.917ZM159.549 396.559H154.659V393.348H159.268V391.918H154.659V388.879H159.549V387.387H152.893V398.051H159.549V396.559ZM165.69 387.387H161.596V398.051H163.37V394.27H165.682C167.854 394.27 169.198 392.848 169.198 390.832C169.198 388.84 167.87 387.387 165.69 387.387ZM167.393 390.832C167.393 392.418 166.424 392.816 164.792 392.816H163.37V388.855H165.424C166.659 388.855 167.393 389.574 167.393 390.832ZM174.784 398.051V388.902H177.917V387.387H169.893V388.902H173.026V398.051H174.784ZM183.737 390.465V390.371C183.737 389.441 184.417 388.629 185.526 388.629C186.534 388.629 187.276 389.27 187.276 390.277C187.276 391.16 186.721 391.84 186.073 392.551L182.143 396.941V398.051H189.245V396.574H184.581V396.527L187.206 393.52C188.339 392.254 189.049 391.387 189.049 390.129C189.049 388.418 187.674 387.176 185.596 387.176C183.37 387.176 182.042 388.652 182.042 390.379V390.465H183.737ZM190.995 395.27C191.081 396.879 192.354 398.262 194.674 398.262C196.956 398.262 198.667 396.77 198.667 394.504C198.667 392.348 197.034 390.957 195.143 390.957C193.948 390.957 193.112 391.504 192.854 391.871H192.799L193.112 388.848H197.87V387.379H191.667L191.128 393.613H192.659C192.932 393.02 193.581 392.355 194.768 392.355C195.956 392.355 196.909 393.215 196.909 394.574C196.909 396.02 195.776 396.816 194.753 396.816C193.62 396.816 192.799 396.254 192.651 395.27H190.995Z" fill="#586069"/>
<path d="M101.007 371.262C104.005 371.262 106.079 369.618 106.474 366.902H104.251C103.899 368.432 102.695 369.337 101.016 369.337C98.819 369.337 97.4303 367.553 97.4303 364.705C97.4303 361.875 98.8278 360.082 101.007 360.082C102.651 360.082 103.943 361.128 104.242 362.719H106.474C106.193 359.994 103.952 358.157 101.007 358.157C97.404 358.157 95.11 360.662 95.11 364.705C95.11 368.774 97.3864 371.262 101.007 371.262ZM112.099 371.235C114.833 371.235 116.608 369.416 116.608 366.393C116.608 363.378 114.815 361.541 112.099 361.541C109.383 361.541 107.59 363.387 107.59 366.393C107.59 369.416 109.366 371.235 112.099 371.235ZM112.099 369.504C110.711 369.504 109.814 368.379 109.814 366.393C109.814 364.415 110.719 363.281 112.099 363.281C113.488 363.281 114.384 364.415 114.384 366.393C114.384 368.379 113.488 369.504 112.099 369.504ZM118.621 371.051H120.809V363.422H122.637V361.761H120.774V360.996C120.774 360.24 121.152 359.845 121.987 359.845C122.242 359.845 122.497 359.871 122.681 359.897V358.368C122.409 358.315 121.934 358.271 121.504 358.271C119.482 358.271 118.621 359.124 118.621 360.935V361.761H117.346V363.422H118.621V371.051ZM124.685 371.051H126.874V363.422H128.702V361.761H126.839V360.996C126.839 360.24 127.216 359.845 128.051 359.845C128.306 359.845 128.561 359.871 128.746 359.897V358.368C128.473 358.315 127.999 358.271 127.568 358.271C125.547 358.271 124.685 359.124 124.685 360.935V361.761H123.411V363.422H124.685V371.051ZM135.979 368.265C135.742 369.038 134.968 369.548 133.949 369.548C132.516 369.548 131.602 368.546 131.602 367.052V366.92H138.115V366.208C138.115 363.378 136.463 361.541 133.817 361.541C131.128 361.541 129.423 363.483 129.423 366.428C129.423 369.398 131.11 371.235 133.905 371.235C136.111 371.235 137.746 370.022 138.027 368.265H135.979ZM133.826 363.237C135.083 363.237 135.926 364.16 135.97 365.479H131.62C131.708 364.178 132.595 363.237 133.826 363.237ZM145.7 368.265C145.463 369.038 144.689 369.548 143.67 369.548C142.237 369.548 141.323 368.546 141.323 367.052V366.92H147.836V366.208C147.836 363.378 146.183 361.541 143.538 361.541C140.848 361.541 139.143 363.483 139.143 366.428C139.143 369.398 140.831 371.235 143.626 371.235C145.832 371.235 147.466 370.022 147.748 368.265H145.7ZM143.547 363.237C144.803 363.237 145.647 364.16 145.691 365.479H141.34C141.428 364.178 142.316 363.237 143.547 363.237ZM158.541 371.262C161.538 371.262 163.612 369.618 164.007 366.902H161.784C161.432 368.432 160.228 369.337 158.549 369.337C156.352 369.337 154.964 367.553 154.964 364.705C154.964 361.875 156.361 360.082 158.541 360.082C160.184 360.082 161.476 361.128 161.775 362.719H164.007C163.726 359.994 161.485 358.157 158.541 358.157C154.937 358.157 152.643 360.662 152.643 364.705C152.643 368.774 154.92 371.262 158.541 371.262ZM165.572 371.051H167.76V365.698C167.76 364.327 168.56 363.413 169.879 363.413C171.144 363.413 171.795 364.195 171.795 365.496V371.051H173.983V365.048C173.983 362.912 172.779 361.559 170.722 361.559C169.307 361.559 168.279 362.2 167.778 363.334H167.734V358.368H165.572V371.051ZM178.483 371.2C179.678 371.2 180.847 370.576 181.383 369.565H181.427V371.051H183.537V364.635C183.537 362.763 182.034 361.541 179.722 361.541C177.349 361.541 175.864 362.789 175.767 364.529H177.798C177.938 363.756 178.597 363.255 179.634 363.255C180.715 363.255 181.375 363.817 181.375 364.793V365.461L178.914 365.602C176.646 365.742 175.372 366.735 175.372 368.388C175.372 370.066 176.681 371.2 178.483 371.2ZM179.142 369.548C178.193 369.548 177.56 369.064 177.56 368.3C177.56 367.562 178.167 367.087 179.221 367.017L181.375 366.885V367.597C181.375 368.722 180.382 369.548 179.142 369.548ZM185.91 359.555V361.734H184.574V363.422H185.91V368.572C185.91 370.383 186.701 371.095 188.714 371.095C189.179 371.095 189.61 371.06 189.847 371.007V369.337C189.707 369.363 189.425 369.381 189.223 369.381C188.45 369.381 188.098 369.029 188.098 368.265V363.422H189.856V361.734H188.098V359.555H185.91ZM191.183 364.406C191.183 365.786 192.08 366.665 193.864 367.061L195.411 367.403C196.386 367.623 196.72 367.939 196.72 368.502C196.72 369.196 196.061 369.636 194.998 369.636C193.89 369.636 193.266 369.179 193.099 368.273H190.946C191.122 370.075 192.563 371.235 194.998 371.235C197.283 371.235 198.9 370.049 198.9 368.291C198.9 366.938 198.153 366.19 196.219 365.76L194.673 365.417C193.697 365.197 193.31 364.828 193.31 364.292C193.31 363.606 193.952 363.149 194.919 363.149C195.929 363.149 196.553 363.686 196.641 364.529H198.68C198.628 362.763 197.186 361.541 194.919 361.541C192.669 361.541 191.183 362.701 191.183 364.406Z" fill="#2F363D"/>
<path fill-rule="evenodd" clip-rule="evenodd" d="M238.259 505.303L238.259 381.799C241.787 380.911 244.394 377.778 244.394 374.051C244.394 370.323 241.787 367.191 238.259 366.303L238.259 277.051L234.168 277.051L234.168 366.303C230.64 367.191 228.033 370.323 228.033 374.051C228.033 377.778 230.64 380.911 234.168 381.799L234.168 505.303C230.64 506.191 228.033 509.323 228.033 513.051C228.033 517.469 231.695 521.051 236.213 521.051C240.731 521.051 244.394 517.469 244.394 513.051C244.394 509.323 241.787 506.191 238.259 505.303ZM228.033 234.551C228.033 238.969 231.696 242.551 236.214 242.551C240.732 242.551 244.394 238.969 244.394 234.551C244.394 230.133 240.732 226.551 236.214 226.551C231.696 226.551 228.033 230.133 228.033 234.551Z" fill="#D1D5DA"/>
<path fill-rule="evenodd" clip-rule="evenodd" d="M238.259 242.299L238.259 286.006C238.259 287.135 237.343 288.051 236.214 288.051C235.084 288.051 234.169 287.135 234.169 286.006L234.169 242.299C230.64 241.411 228.033 238.278 228.033 234.551C228.033 230.823 230.64 227.691 234.169 226.803L234.169 0.0507808L238.259 0.050781L238.259 226.803C241.787 227.691 244.394 230.823 244.394 234.551C244.394 238.278 241.787 241.411 238.259 242.299Z" fill="url(#paint0_linear)"/>
</g>
<defs>
<linearGradient id="paint0_linear" x1="236.214" y1="0.0507826" x2="236.214" y2="288.051" gradientUnits="userSpaceOnUse">
<stop stop-color="#FAFAFA" stop-opacity="0"/>
<stop offset="1" stop-color="#CA4238"/>
</linearGradient>
<clipPath id="clip0">
<rect width="244" height="595" fill="white" transform="translate(0 0.0507812)"/>
</clipPath>
</defs>
</svg>
